<svg version="1.1" xmlns="http://www.w3.org/2000/svg" viewBox="0 0 443.5299724578856 539.5" width="887.0599449157712" height="1079">
  <!-- svg-source:excalidraw -->
  
  <defs>
    <style>
      @font-face {
        font-family: "Virgil";
        src: url("https://excalidraw.com/Virgil.woff2");
      }
      @font-face {
        font-family: "Cascadia";
        src: url("https://excalidraw.com/Cascadia.woff2");
      }
    </style>
  </defs>
  <g stroke-linecap="round"><g stroke-opacity="0.3" fill-opacity="0.3" transform="translate(22.77282510288046 431) rotate(0 196.72487234361472 -0.3871013749391068)"><path d="M0.32 0.43 C65.87 0.32, 327.49 -1.08, 393.13 -1.2" stroke="#EEEEEE" stroke-width="1.5" fill="none" stroke-dasharray="8 9"></path></g></g><g stroke-linecap="round" transform="translate(67.77282510288046 10) rotate(0 64.5 34.5)"><path d="M0 0 C0 0, 0 0, 0 0 M0 0 C0 0, 0 0, 0 0 M0.12 5.99 C1.14 3.85, 3.17 1.42, 5.41 0.39 M-0.03 6.58 C1.4 5.2, 1.92 3.4, 4.98 0.7 M1.01 13.39 C1.7 8.91, 4.2 7.48, 9.33 -0.6 M0.23 12.66 C3.39 7.18, 7.73 2.89, 10.96 -0.5 M-2.1 17.69 C4.29 14.34, 6.88 7.71, 14.49 0.61 M-1.13 17.87 C3.56 15.55, 6.71 11.85, 15.32 0.43 M-1.06 23.63 C5.31 19.24, 11.72 14.08, 20.05 -0.93 M0.9 24.48 C8.47 15.63, 15.97 6.97, 20.53 0.74 M-1.41 28.6 C7.52 23.31, 16.14 12.51, 27.07 -0.95 M-0.09 31.22 C7.96 20.93, 14.89 11.71, 26.87 -0.19 M-1.03 38.69 C6.62 25.82, 13.7 20.6, 33.29 -1.51 M-0.22 36.18 C8.43 25.19, 17.94 15.07, 31.05 -0.26 M-0.52 41.07 C11.01 31.28, 22.66 15.31, 36.9 -1.44 M0.54 42.9 C12.72 29.54, 22.7 16.38, 35.94 0.05 M0.1 49.84 C7.05 37.36, 15.49 31.26, 41.08 -0.68 M-0.71 49.28 C12.54 34.08, 25.26 21.19, 41.62 -0.79 M1.32 54.53 C10.52 42.84, 22.14 28.38, 46.1 1.43 M0.61 53.93 C16.11 35.51, 33.12 17.85, 47.04 -0.63 M0.19 61.75 C16.91 40.95, 35.37 18.32, 53.83 1.82 M0.14 60.92 C21.23 36.77, 41.67 12.39, 53.02 -0.03 M-1.77 67.63 C17.5 48.67, 35.35 25.95, 59.85 -0.59 M-0.96 68.09 C16.76 48.67, 34.41 27.4, 57.93 0.47 M2.74 69.51 C16.06 54.63, 33.08 37.76, 61.97 -1.27 M2.84 69.75 C14.68 53.71, 29.38 39.16, 64.74 -0.1 M5.53 72.91 C30.17 46.6, 48.76 22.1, 68.33 -0.29 M6.68 71.6 C28.07 46.3, 48.71 21.4, 68.61 -0.4 M12.88 70.44 C25.02 57.59, 40.46 42.42, 73.94 1.27 M12.78 70.65 C37.25 41.28, 62.69 13.4, 74.01 -1.15 M19.47 72.49 C41.52 47.33, 63.66 17.75, 80.77 -0.96 M16.97 71.82 C37.5 47.46, 57.95 26.09, 80.3 -0.48 M23.67 72.65 C40.85 51.29, 58.51 31.69, 86.25 1.09 M23.46 70.36 C42.25 48.55, 60.64 28.2, 84.81 -0.28 M29.63 71.44 C49.98 50.39, 65.86 24.15, 91.42 1.55 M27.43 71.57 C46.18 50.13, 65.74 29.03, 90.47 0.48 M33.76 69.93 C55.14 46.21, 75.12 23.26, 97.42 0.34 M33.15 71.36 C57.36 44.32, 80.58 17.26, 94.85 -0.6 M38.91 69.52 C59.42 43.82, 82.39 19.4, 101.58 0.86 M38.56 71.97 C52.31 53.49, 68.15 38.53, 99.8 -0.72 M44.81 69.54 C65.29 48.71, 81.34 25.6, 106 1.63 M45.36 70.6 C59.19 54.52, 72.96 37.05, 106.55 -0.19 M50.23 70.98 C72.74 42.17, 97.25 16.66, 109.56 -1.94 M49.62 71.1 C66.12 52.47, 82.26 33.86, 111.24 0.22 M55.5 70.18 C78.05 44.81, 97.21 20.69, 115.91 -1.2 M55.85 70.58 C74.96 48.82, 91.67 29.11, 115.44 -0.35 M60.57 70.52 C80.84 48.08, 98.9 24.6, 120.72 -0.27 M59.6 71.1 C75.67 53.12, 91.06 36.11, 120.95 0.11 M67.57 72.06 C77.86 53.16, 89.92 41.49, 125.09 -0.11 M65.57 70.3 C87.44 43.98, 111.2 18.93, 127.73 0.35 M70.9 71.3 C92.71 43.48, 116.29 17.76, 132.11 1.4 M70.2 71.09 C86.73 53.94, 101.84 36.36, 132.01 0.78 M75.77 70.82 C93.85 51.7, 108.98 32.87, 132.96 9.21 M75.75 70.27 C92.78 52.43, 108.75 34.28, 130.85 7.17 M80.25 70.98 C92.87 55.73, 108.17 39.46, 132.63 12.4 M80.9 70.23 C94.11 57.18, 105.68 43.91, 131.52 14.91 M85.88 71.6 C104.24 52.75, 119.08 33.51, 132.83 20.23 M86.83 69.54 C100.07 56.21, 111.64 41.57, 130.81 19.08 M91.68 71.66 C103.16 57.66, 116.89 41.02, 131.22 27.6 M91.86 70.68 C107 53.54, 120.54 37.88, 129.86 26.77 M96.73 70.98 C107.36 56.67, 121.7 43.96, 129.35 31.38 M97.5 70.65 C109 56.07, 122.44 43.08, 130.63 31.54 M102.26 69.92 C114.8 57.19, 124.97 47.56, 132.69 40.21 M103.03 70.63 C111.33 61.36, 119.94 51.73, 131.47 38.01 M109.51 71.8 C115.24 62.04, 124.65 48.37, 130.59 42.84 M107 71.42 C116.28 60.94, 124.04 53.38, 131.53 44.32 M113.11 70.82 C117.57 62.92, 126.95 57.81, 131.56 50.13 M113.05 71.28 C118.35 65.14, 124.22 57.91, 131.68 51.01 M116.51 70.12 C122.7 68.61, 125.23 63.87, 132.56 55.07 M118.78 70.93 C121.5 67.01, 126.05 62.64, 130.4 56.93 M123.68 70.25 C125.6 69.28, 127.44 66.65, 130.2 62.59 M124.19 70.23 C126.53 68.26, 129.63 64.89, 131.15 62.56" stroke="#333333" stroke-width="0.5" fill="none"></path><path d="M0.91 0.17 C43.12 1.88, 87.51 -0.33, 128.11 -1.53 M-0.61 0.47 C28.3 -0.26, 55.1 0.39, 129.65 0.08 M127.66 0.84 C127.64 16.94, 129.66 36.33, 127.66 69.54 M129.43 0.65 C128.55 27.1, 128.93 53.97, 129.26 68.7 M127.11 67.76 C100.91 71.18, 74.53 71.56, 0.82 68.59 M129.51 68.39 C78.69 68.77, 28.17 67.01, 0.3 69.34 M0.73 69.86 C0.13 46.46, -1.07 27.67, 1.34 0.79 M-0.72 68.86 C0.76 55.56, 0.13 40.06, 0.45 -0.39" stroke="#EEEEEE" stroke-width="1" fill="none"></path></g><g transform="translate(72.77282510288046 32) rotate(0 59.5 12.5)"><text x="59.5" y="18" font-family="Virgil, Segoe UI Emoji" font-size="20px" fill="#EEEEEE" text-anchor="middle" style="white-space: pre;" direction="ltr">Group 1</text></g><g stroke-linecap="round" transform="translate(243.77282510288046 10.5) rotate(0 64.5 34.5)"><path d="M0 0 C0 0, 0 0, 0 0 M0 0 C0 0, 0 0, 0 0 M-0.05 5.99 C0.28 4.93, 2.17 4.45, 4.69 0.1 M-0.1 6.02 C0.93 4.65, 2.19 3.74, 4.8 0.52 M-1.06 13.07 C2.06 7.59, 5.53 3.65, 9.73 0.15 M-0.49 12.76 C3.28 7.74, 7.34 3.03, 11.11 -0.5 M1.79 18.64 C3.33 11.17, 8.82 6.46, 17.44 1.38 M0.39 17.55 C3.88 13.58, 9.65 6.96, 16.07 0.66 M1.69 24.29 C4.4 16.75, 11.03 11.53, 23.08 0.11 M-0.07 23.51 C7.89 16.78, 15.66 8.15, 21.25 0.06 M-0.84 30.93 C7.4 21.78, 15.49 12.98, 25.55 -1.23 M0.19 30.02 C9.06 20.43, 16.37 11.24, 25.43 -0.42 M0.26 34.98 C11.41 23.46, 22.77 10.41, 30.98 0.52 M0.2 37.81 C6.67 27.33, 14.5 19.55, 32.65 0.63 M-0.08 44.16 C9.84 34.44, 16.23 24.76, 34.98 -1.31 M-0.51 42.24 C13.97 25.89, 28.95 9.96, 37.74 -0.16 M-0.29 47.08 C14.39 30.68, 27.83 14.2, 41.57 0 M0.79 49.44 C12.05 35.3, 25.49 20.27, 43.2 -0.1 M2.09 53.28 C13.43 37.15, 29.53 21.91, 45.61 1.96 M0.26 53.83 C18.33 33.39, 35.45 14.39, 46.65 -0.53 M0.87 62.56 C21.7 37.33, 39.13 13.59, 51.73 0.13 M0.91 60.02 C21.7 37.51, 42.33 12.35, 53.69 -0.09 M-0.51 69.02 C14.95 49.4, 31.55 31.51, 56.78 1.46 M-1.17 66.39 C18.5 46.08, 36.57 24.6, 57.34 -0.74 M2.69 72.38 C25.18 46.2, 46.85 19.03, 64.78 -0.44 M1.87 70.88 C19.29 52.39, 35.62 33.48, 62.93 -1.06 M5.61 72.56 C28.59 43.78, 54.5 19.89, 69.31 0.07 M6.71 71.19 C22 55.79, 34.82 39.38, 69.51 -0.27 M14.16 72.27 C36.18 41.36, 62.58 15.05, 72.51 -0.06 M12.13 69.81 C27.2 54.34, 41.94 36.55, 74.75 0.49 M17.28 71.24 C36.37 49.55, 56.27 28.22, 79.48 0.73 M17.32 71.85 C35.81 48.97, 54.85 28.62, 80.35 0.12 M24.66 71.35 C42.31 48.44, 62.89 24.83, 85.21 -0.04 M22.53 70.67 C40.22 50.19, 57.72 30.22, 84.97 0.31 M27.11 71.9 C44.65 48.68, 65.4 27.13, 89.04 0.4 M27.42 70.69 C44.99 51.11, 62.32 30.84, 89.6 -0.57 M33.57 70.95 C51.84 48.65, 71.58 25.33, 97.59 1.37 M33.01 71.26 C56.71 44.29, 81.54 17.91, 96.47 -0.63 M39.47 72.63 C58.38 51.44, 75.66 32.24, 99.21 0.07 M38.05 71.5 C59.82 48.39, 78.72 24.93, 100.48 -0.63 M43.73 72.43 C65.98 46.12, 83.99 24.63, 106.88 -1.1 M44.97 70.12 C64.63 48.95, 83.11 25.56, 106.1 -1.12 M49.18 72.56 C66.54 49.65, 83.16 33.01, 112.68 -1.24 M50.25 70.31 C69.86 48.27, 87.22 27.22, 110.75 -0.6 M55.46 71.2 C71 55.34, 85.46 36.19, 118.08 -0.9 M54.35 71.52 C77.87 45.1, 98.55 18.89, 117.1 0.06 M59.54 69.87 C72.28 54.48, 86.06 39.73, 123.61 -0.48 M60.11 70.37 C82.13 46.89, 103.75 21.32, 121.69 -0.29 M64.55 70.68 C81.24 51.92, 101.42 31.73, 128.64 -0.71 M66.63 70.45 C85.5 47.38, 107.07 25.3, 126.68 0.06 M72.31 71.73 C89.53 48.04, 111.56 28.21, 130.31 0.95 M71.71 71.18 C86.58 54.51, 101.29 35.49, 131.75 1.72 M76.23 72.34 C93.08 51.67, 109.54 33.01, 131.97 9.61 M75.76 69.64 C95.14 48.31, 113.84 28.55, 130.54 7.1 M81.74 72.39 C98.96 52, 114.35 34.47, 131.35 13.97 M82.17 71.46 C97.21 53.74, 112.01 37.59, 129.72 13.9 M87.24 69.65 C103.97 53.66, 117.61 32.93, 129.77 17.92 M87.24 70.58 C98.69 56.77, 108.71 45.73, 130.24 20.31 M92.53 71.09 C102.34 58.58, 112.26 46.71, 129.8 25.65 M92.59 70.17 C101.1 59.45, 112.51 47.78, 129.91 26.58 M99.76 70.15 C104.55 62.55, 110.35 52.95, 129.52 33.62 M97.06 70.45 C104.87 61.11, 112.18 53.39, 131.66 32.56 M101.85 70.12 C110.83 59.9, 117.91 52.18, 129.01 39.94 M103.12 71.52 C112.22 60.81, 121.52 50.6, 130.98 37.62 M106.79 70.14 C112.35 65.68, 119.03 57.43, 132.58 44.4 M108.1 71.96 C116.41 60.55, 126.06 50.92, 130.12 44.21 M113.34 68.8 C117.1 64.65, 121.6 59.84, 130.51 50.03 M113.91 69.93 C116.68 65.69, 120.78 62.88, 130.8 49.9 M116.85 69.77 C123.87 64.82, 129.62 61.11, 130.76 58.62 M117.73 71.27 C122.82 67.07, 126.71 62.45, 129.95 56.61 M123.53 70.03 C127.15 68.49, 129.48 63.51, 131.25 61.73 M124.08 70.91 C125.92 68.5, 128.5 66.09, 130.95 62.74" stroke="#333333" stroke-width="0.5" fill="none"></path><path d="M-1.46 -0.89 C44.71 0.94, 88.28 -1.33, 129.97 1.09 M-0.66 0.83 C48.77 -0.22, 99.85 -0.7, 128.12 0.12 M128.41 -0.86 C129.21 24.86, 127.9 51.68, 129.58 67.02 M128.15 -0.35 C128.45 18.25, 128.13 36.35, 128.09 68 M129.42 70.84 C97 70.23, 65.04 69.31, 0.66 67.67 M129.6 69.89 C92.6 69.27, 58.15 69.57, -0.1 69.63 M-0.11 70.91 C-1.66 47.16, -0.82 21.2, 0.66 -1.42 M0.93 68.2 C0.3 54.18, -0.18 40.85, 0.78 -0.1" stroke="#EEEEEE" stroke-width="1" fill="none"></path></g><g transform="translate(248.77282510288046 32.5) rotate(0 59.5 12.5)"><text x="59.5" y="18" font-family="Virgil, Segoe UI Emoji" font-size="20px" fill="#EEEEEE" text-anchor="middle" style="white-space: pre;" direction="ltr">Group 2</text></g><g stroke-linecap="round"><g stroke-opacity="0.4" fill-opacity="0.4" transform="translate(9.77282510288046 105) rotate(0 205.58267843835063 0.4208976197987795)"><path d="M0.23 0.36 C68.71 0.61, 342.32 0.34, 410.94 0.48" stroke="#EEEEEE" stroke-width="1.5" fill="none" stroke-dasharray="8 9"></path></g></g><g stroke-linecap="round" transform="translate(135.77282510288046 143.5) rotate(0 83.5 32)"><path d="M0 0 C0 0, 0 0, 0 0 M0 0 C0 0, 0 0, 0 0 M-0.69 7.1 C1.23 3.98, 2.42 2.43, 5.78 -0.15 M-0.26 6.61 C2.01 4.02, 3.66 1.96, 5.05 0.73 M0.15 11.21 C2.77 7.56, 8.01 3.02, 9.07 -0.68 M0.25 12.45 C3.63 8.88, 6.67 4.66, 10.79 0.4 M-0.51 19.26 C3.09 12.12, 7.89 8.81, 14.04 0.3 M-0.11 19.33 C2.5 13.78, 7.19 9.61, 14.89 0.56 M-0.14 24.13 C4.84 16.87, 8.95 12.22, 21.01 -1.1 M0.44 23.79 C5.04 18.11, 10.78 11.46, 21.38 -0.95 M1.53 29.34 C4.94 20.04, 15.27 11.99, 25.8 1.69 M-0.23 29.53 C7.8 21.44, 16.86 12.67, 26.25 1.22 M0.16 35.14 C9.82 23.06, 21.77 13.9, 31.84 -0.98 M-0.06 36.77 C7.82 28.26, 15.31 21.09, 31.22 -0.19 M0.46 43.93 C10.39 30.95, 20.58 19.9, 38.23 0.18 M-0.09 42.46 C10.61 31.09, 21.01 19.69, 36.19 -0.11 M0 47.82 C16.01 31.61, 30.99 13.43, 40.66 -1.28 M-0.75 49.41 C11.68 35.8, 23.9 23.02, 43.18 0.67 M1.41 54.63 C13.08 39.97, 24.43 30.42, 47.85 -0.24 M-0.65 54.81 C9.41 43.45, 18.25 32.6, 46.69 0.41 M0.85 59.28 C12.39 47.53, 21.46 34.91, 54.46 1.26 M-0.13 61.14 C11.8 46.1, 25.15 31.44, 53.63 0.21 M2.27 63.53 C20.01 44.64, 39.63 19.05, 57.58 1.42 M1.94 64.47 C22.03 42.19, 43.64 17.08, 57.74 0.88 M5.84 67.36 C27.31 41.9, 51.7 16.56, 65.66 -0.1 M6.55 65.31 C22.71 47.08, 38.71 29.64, 63.46 0.76 M13 63.24 C26.23 48.41, 35.76 35.16, 66.87 1.21 M12.62 65.52 C29.32 45.27, 48.75 25.63, 68.36 0.61 M17.4 63.48 C33.96 46.61, 53.47 25.52, 74.17 -0.05 M17.86 65.07 C40.78 40.04, 62.13 14.93, 75.04 -0.61 M21.93 65.99 C37.03 51.53, 48.38 38.92, 77.61 0.19 M22.79 64.41 C43.9 41.73, 64.11 17.8, 79.56 -0.83 M27.11 65.63 C48.62 43.58, 66.82 17.88, 85.37 0.73 M27.09 65.32 C46.16 46.78, 62.22 26.19, 85.3 -1.1 M32.07 63.49 C47.29 46.58, 62.91 30.19, 88.15 -1.54 M33.54 64.75 C50.21 45.2, 65.98 26.54, 89.4 -0.67 M38.95 66.27 C57.07 44.04, 78.19 23.05, 96.11 1.62 M38.45 65.66 C57.09 43.46, 76 21.2, 96.66 -1.19 M45.88 63.49 C62.62 42.17, 86.24 17.27, 99.32 1.16 M43.5 64.87 C60.63 47.09, 75.18 28.82, 99.93 0.14 M47.38 66.91 C62.04 52.18, 72.56 36.43, 104.69 0.01 M50.2 65.92 C71.07 40.99, 90.07 18.33, 106.05 0.4 M54.66 64.51 C75.21 38.81, 97.9 15.97, 112.42 0.45 M55.12 65.62 C75.47 41.87, 94.98 19.14, 112.23 -0.16 M59.32 64.09 C71.44 50.41, 87.34 34.34, 116.25 2.09 M59.59 65.18 C74.97 46.53, 91.08 29.37, 115.29 0.41 M63.12 66.84 C78.6 49.52, 92.64 35.95, 123.22 1.51 M64.37 66.3 C83.76 42.66, 103.45 20.67, 121.38 0.92 M72.17 63.37 C90.34 42.77, 112.27 17.56, 127.35 1.8 M69.91 64.74 C87.16 47.42, 101.62 28.9, 126.65 1.08 M75.47 67.07 C91.59 47.04, 107.18 30.38, 131.96 0.59 M75.75 66.21 C94.02 44.94, 109.75 24.85, 133.49 -0.88 M79.78 65.37 C94.86 49.21, 105.15 36.83, 136.06 -0.61 M81.45 65.15 C91.55 53.32, 103.41 39.64, 137.96 -0.37 M88.08 65.08 C105.98 44.27, 123.59 20.52, 141.33 -1.08 M85.94 64.63 C103.51 45.36, 121.58 24.76, 142.68 0.4 M90.49 63.7 C113.83 38.6, 135.31 16.86, 146.56 0.39 M92.5 65.17 C102.31 51.52, 114.36 37.15, 148.23 0.26 M94.74 66.75 C113.31 50.72, 124.7 31.2, 154.52 0.81 M96.12 64.58 C114.81 46.38, 130.28 26.1, 154.08 -0.05 M101.09 67.04 C119.64 46.11, 135.82 30.22, 158.5 -1.66 M102.41 64.81 C119.2 47.48, 133.54 29.14, 157.97 -0.08 M108.75 66.02 C130.69 41.14, 148.62 18.51, 165.17 -0.43 M107.01 65.81 C127.52 42.5, 147.54 17.71, 164.85 -0.8 M114.85 65.07 C127.83 44.82, 145.47 28.87, 168.37 1.59 M112.5 64.33 C131.32 44.48, 148.31 24.84, 169.57 0.02 M116.85 66.84 C129.21 52.02, 141.25 37.52, 168.82 7.09 M117.82 65.8 C133.29 48.21, 146.15 32.52, 168.59 6.37 M123.5 66.52 C136.95 53.25, 145.74 39.37, 166.92 13.07 M123.13 65.18 C135.07 52.92, 146.1 39.96, 167.74 13.29 M129.26 65.2 C141.14 53.05, 151.47 38.76, 168.68 17.74 M129.28 64.78 C136.83 56.21, 146.51 45.34, 168.11 19.33 M133.26 65.15 C145.32 51.86, 157.99 38.76, 167.35 25.59 M134.67 65.1 C145.64 52.49, 156.1 39.31, 168.69 26.06 M137.68 67.13 C148.46 52.23, 160.7 41.44, 169.73 31.4 M138.67 64.7 C150.2 51.49, 161.1 38.95, 168.55 31.69 M146.78 65.74 C151.7 57.71, 153.01 55.26, 166.55 37.6 M144.51 65.02 C149.28 59.4, 154.49 52.39, 168.34 36.94 M149.26 66.68 C154.75 59.16, 159.91 53.88, 166.83 42.28 M150.74 66.24 C157.63 56.62, 164.98 48.74, 168.46 44.57 M157.23 66.11 C156.93 63.14, 162.03 58.19, 167.53 48.8 M156.05 64.12 C160.51 60, 164.62 54.47, 167.8 49.54 M160.58 64.5 C162.58 62.88, 164.35 60.46, 168.93 56.91 M160.67 65.63 C162.45 62.6, 165.24 60.01, 167.79 56.15 M165.51 65.24 C166.38 64.49, 167.41 63.74, 168.77 62.17 M165.39 65.66 C166.35 64.78, 167.25 63.51, 169 61.99" stroke="#333333" stroke-width="0.5" fill="none"></path><path d="M1.43 0.63 C43.2 -1.47, 81.14 -0.08, 165.92 0.53 M0.75 0.1 C59.78 1.69, 122.32 2.17, 166.4 -0.35 M168.99 0.45 C165.5 14.6, 164.67 26.83, 168.36 64.06 M166.7 0.15 C167.04 18.62, 168.18 37.26, 166.99 64.2 M167.41 65.99 C116.66 63.22, 61.14 66.45, 1.46 64.1 M167.55 63.56 C104.14 62.73, 41.57 62.89, 0.4 64.34 M-0.7 64.13 C-0.76 48.18, -0.02 35.07, 0.65 1.7 M0.73 63.78 C1.02 42.6, 1.28 21.86, -0.29 0.64" stroke="#EEEEEE" stroke-width="1" fill="none"></path></g><g transform="translate(140.77282510288046 163) rotate(0 78.5 12.5)"><text x="78.5" y="18" font-family="Virgil, Segoe UI Emoji" font-size="20px" fill="#EEEEEE" text-anchor="middle" style="white-space: pre;" direction="ltr">Welcome Email</text></g><g stroke-linecap="round" transform="translate(84.27282510288046 238.5) rotate(0 58.5 32)"><path d="M0 0 C0 0, 0 0, 0 0 M0 0 C0 0, 0 0, 0 0 M-0.14 5.62 C1.29 4.07, 2.39 3.91, 5.66 0.97 M-0.01 6.03 C0.98 5.26, 2.39 3.84, 4.86 0.27 M1.44 13.36 C2.3 11.03, 4.8 5.91, 10.65 0.3 M0.54 12.39 C2.38 9.22, 4.05 6.85, 10.09 0.12 M1.71 19.98 C2.95 13.11, 8.7 8.62, 14.86 0.65 M-0.6 19.43 C6.42 11.64, 11.29 4.76, 14.85 0.1 M1.87 23.84 C4.98 16.28, 14.21 11.31, 20 0.06 M-0.38 25.04 C4.47 17.46, 10.29 11.58, 20.65 -0.7 M0.64 32.1 C10.54 21.51, 17.21 11.16, 24.98 1.43 M0.96 31.34 C7.84 21.33, 14.64 13.22, 25.93 -0.63 M-1.31 36.27 C8.51 25.34, 18.94 14.65, 31.43 0.74 M-0.81 37.06 C7.09 29.65, 12.73 20.71, 31.62 -0.24 M0.29 40.55 C13.15 30.07, 24.73 17.59, 35.83 0.81 M0.06 41.57 C8.12 33.48, 17.22 23.25, 36.59 0.48 M0.72 47.7 C9.46 38.33, 22.12 24.37, 42.01 -1 M0.16 49.78 C18.1 29.23, 33.77 10.3, 42.78 -0.29 M2.11 55.54 C12.79 41.02, 25.46 24.55, 49.26 0.87 M-0.58 54.5 C8.8 44.09, 19.75 31.76, 46.75 0.49 M1.54 62.58 C18.19 40.64, 37.58 19.19, 52.87 -0.1 M0.61 61.18 C10.91 48.28, 22.73 34.77, 52.8 0.36 M0.91 66.23 C17.63 47.1, 29.73 29.27, 56.17 -0.86 M1.83 65.99 C20.07 42.47, 41.2 18.96, 58.56 0 M6.97 64.5 C20.56 47.77, 34.83 32.95, 63.14 -1.06 M6.06 64.51 C24.55 45.2, 42.16 23.26, 64.07 -1.09 M12.07 64.71 C28.99 43.79, 44.12 24.66, 70.45 -1.39 M12.37 64.4 C24.51 50.04, 38.08 36.66, 69.39 0.09 M16.66 65.12 C31.56 46.08, 49.11 27.52, 76.02 0.12 M18.07 66.05 C37.59 43.47, 57.44 19.8, 73.7 -0.39 M21.97 63.15 C43.91 42.07, 61.86 24.22, 79.06 1.76 M23.8 64.7 C35.59 50.67, 48.84 34.8, 78.87 -0.62 M26.01 65.06 C43 46.43, 59.43 26.5, 84.7 -2.12 M27.15 65.14 C48.75 40.35, 71.85 14.93, 84.57 0.7 M32.19 65.63 C52.83 43.53, 75.26 18.55, 91.97 0.53 M33.77 65.34 C48.03 49.91, 61.67 33.07, 89.85 1 M37.35 65.89 C57.13 45.91, 70.81 26.92, 94.43 -0.84 M38.95 65.1 C52.89 50.38, 66.35 33.21, 96.26 -0.57 M44.35 64.71 C59.04 46.6, 76.15 29.05, 100.19 -1.68 M44.7 65.75 C65.02 42.52, 85.04 18.75, 101.42 -0.42 M50.08 64.63 C69.07 43.43, 92.28 15.82, 104.48 1.34 M49.38 64.76 C61.61 52.33, 72.92 37.28, 106.11 -0.92 M53.44 64.16 C67.5 50.82, 81.85 32.58, 109.75 0.02 M54.08 66.16 C75.21 41.67, 96.84 16.18, 111.9 0.3 M58.6 63.79 C81.49 40.53, 98.3 18.99, 117.5 -0.96 M59.57 65.46 C76.01 45.25, 93.13 26.1, 115.52 0.71 M64.44 65.94 C82.3 45.27, 98.38 26.65, 121.75 4.22 M64.09 65.54 C79.04 47.31, 95.26 30.37, 119.86 2.09 M70.36 65.34 C79.81 54.48, 92.58 42.91, 120.92 7.39 M70.88 66.06 C80.56 52.85, 91.6 40.77, 120.39 9.4 M74.42 64.77 C89.32 50.09, 101.63 33.49, 119.73 12.3 M74.69 65.13 C91.51 47.15, 107.2 27.63, 120.56 13.68 M79.84 64.71 C89.2 56.03, 96.19 46.53, 119.38 19.4 M81.93 65.95 C95.96 46.86, 111.18 30.14, 120.52 20.72 M85.11 67.08 C93.02 54.35, 105.06 43.44, 118.71 28.47 M85.22 66.46 C97.05 52.91, 108.2 41.2, 119.87 26.73 M90.53 64.83 C101.9 52.91, 110.33 44.01, 119.56 34.57 M91.54 66.01 C100.2 56.02, 108.97 45.71, 119.47 32.22 M96.28 65.75 C103.32 57.93, 105.5 55.9, 118.14 37.98 M96.76 65.04 C105.36 55.69, 113.51 45.88, 120.37 38.95 M100.98 66.05 C108.28 56.43, 113.2 50.89, 120.89 44.63 M101.79 65.66 C108.14 57.07, 114.87 49.38, 120.23 44.26 M107.73 66.11 C110.25 60.09, 114.83 54.74, 120.54 51.77 M107.14 65.42 C110.93 60.52, 113.72 57.98, 118.95 51.79 M113.88 64.67 C114.03 63.24, 116.61 62.11, 119.87 57.06 M112.99 65.47 C114.78 62.73, 117.15 60.23, 119.23 57.77" stroke="#333333" stroke-width="0.5" fill="none"></path><path d="M1.47 -1.65 C31.95 2.15, 67.03 1.41, 116.92 -1.47 M0.1 0.46 C27.83 -0.23, 54.93 1.2, 116.57 0.98 M118.57 -1.71 C115.05 13.74, 116.95 25.23, 117.18 62.94 M116.11 -0.15 C117.8 24.16, 117.54 49.95, 117.73 64 M117.18 64.5 C75.93 65.61, 34.53 63.82, 0.61 64.02 M117.79 63.14 C87.02 63.12, 59.03 64.48, 0 64.14 M0.68 63.91 C0.07 42.6, -1.23 19.17, 0.24 -0.38 M0 63.82 C-0.53 42.16, -0.57 20.27, 0.58 0.02" stroke="#EEEEEE" stroke-width="1" fill="none"></path></g><g transform="translate(89.27282510288046 245.5) rotate(0 53.5 25)"><text x="53.5" y="18" font-family="Virgil, Segoe UI Emoji" font-size="20px" fill="#EEEEEE" text-anchor="middle" style="white-space: pre;" direction="ltr">CTA</text><text x="53.5" y="43" font-family="Virgil, Segoe UI Emoji" font-size="20px" fill="#EEEEEE" text-anchor="middle" style="white-space: pre;" direction="ltr">Group A</text></g><g stroke-linecap="round" transform="translate(229.27282510288046 240) rotate(0 58.5 32)"><path d="M0 0 C0 0, 0 0, 0 0 M0 0 C0 0, 0 0, 0 0 M-0.7 6.55 C1.35 5.67, 1.44 3.61, 4.77 0.25 M-0.23 6 C1.65 4.66, 3.3 2.94, 4.78 0.47 M0 10.53 C2.05 10.27, 5.89 6.23, 10.17 0.32 M0.47 11.56 C2.37 9.65, 5.88 5.86, 10.43 -0.38 M0.45 20.15 C8.13 11.26, 11.98 5.02, 16.14 0.02 M0.79 18.93 C3.94 14.25, 8.02 8.6, 16.49 0.65 M-1.44 23.95 C2.58 20.25, 9.13 13.27, 19.75 0.47 M1.03 24.89 C7.36 16.15, 15.12 7.65, 21.12 -0.03 M1.21 30.92 C5.2 24.36, 12.59 16.05, 25.55 1.35 M-0.4 31.05 C7.45 22.09, 12.98 13.77, 25.26 -0.23 M-0.02 38.67 C8.92 24.04, 23.07 9.35, 32.73 -0.48 M-0.12 36.4 C7.53 27.04, 15.52 18.64, 31.57 -0.53 M-1.15 40.63 C11.85 30.17, 22.91 14.09, 37.45 -1.5 M0 42.34 C10.9 28.92, 20.97 16.47, 37.72 -0.51 M-0.07 47.6 C7.9 36.56, 19.23 27.98, 43.77 -0.27 M-0.46 48.77 C10.81 34.84, 23.48 21.09, 43.32 0.04 M1.75 55.83 C17.29 37.53, 33.84 16.81, 46.09 -0.07 M-0.23 53.62 C17.13 35.93, 32.4 19.77, 47.34 1.04 M1.65 60.32 C11.18 48.02, 24.16 31.86, 52.1 -1.65 M-0.97 60.8 C14.63 43.23, 30.03 25.02, 52.98 -1.09 M0.08 64.61 C21.45 40.52, 45.73 14.9, 57.2 2.14 M1.01 65.42 C21.19 42.89, 42.57 18.7, 59.11 0.41 M7.03 66.15 C21.85 50.41, 35.66 32.22, 63.43 1.62 M6.08 65.72 C24.3 46.19, 39.54 27.02, 63.16 -0.47 M13.06 64.57 C26.47 51.12, 39.52 32.75, 69.96 -0.37 M12.4 64.94 C28.13 46.66, 44.87 28.48, 68.53 -0.71 M18.27 67.01 C39 43.48, 58.97 19.03, 75.94 -1.18 M17.76 65.07 C37.72 42.59, 59.77 16.78, 73.5 0.6 M23.28 63.91 C35.45 52.93, 46.14 36.54, 79.02 -1.02 M22.59 64.26 C36.37 49.62, 50.5 32.49, 78.63 0.12 M27.7 66.35 C48.66 41.7, 70.61 15.23, 86.26 0.29 M27.34 64.64 C48.88 41.18, 67.69 18.45, 85.65 -0.94 M33.03 65.34 C49.02 44.51, 65.9 26.17, 88.53 0.75 M33.41 65.14 C51.04 44.84, 67.55 25.78, 90.93 1.07 M37.1 65.14 C52.41 45.89, 70.21 28.85, 95.5 -0.63 M38.53 65.4 C50.07 52.21, 63.14 38.74, 96.29 -0.94 M45.03 66.58 C55.11 50.79, 67.67 37.56, 102.06 1.57 M43.71 64.54 C61.65 45.35, 78.01 25.31, 100.48 -0.95 M47.66 64.37 C70 42.04, 89.8 16.34, 107.25 -1.56 M48.59 65.07 C60.62 51.64, 71.82 38.03, 106.08 -0.99 M55.84 67.14 C76.02 38.12, 98.44 13.91, 112.69 0.09 M53.71 66.43 C67.99 47.31, 84.78 29.46, 110.86 0.71 M58.09 67.05 C78.44 43.89, 97.31 24.4, 116.89 -0.33 M59.25 65.11 C78.93 42.67, 97.14 22.12, 116.08 1.3 M64.43 67.31 C81.35 47.76, 98.5 27.6, 118.98 1.24 M64.62 65.74 C77.59 50.96, 88.35 38.81, 119.17 1.67 M70.54 64.24 C88.95 44.17, 106.45 23.15, 121.05 8.29 M69.79 65.7 C86.52 45.57, 102.44 27.31, 120.09 8.58 M74.3 66.64 C90.34 45.45, 107.22 26.15, 120.37 13.28 M75.66 65.93 C88.75 48.92, 102.99 32.49, 120.46 14.61 M80.64 65.03 C92.17 50.53, 101.64 41.06, 117.98 22.01 M81.99 64.77 C89.73 54.52, 99.86 44.71, 120.13 20.18 M86.05 67.01 C95.43 53.5, 107.11 40.96, 118.21 27.9 M85.77 64.88 C96.57 54.1, 107.22 42.84, 119.7 26.3 M91.48 66.53 C103.85 52.67, 115.52 42.12, 120.42 31.56 M91.16 64.98 C98.04 58.18, 103.85 49.93, 120.21 33.67 M94.77 67.27 C102.28 56.58, 110.28 45.98, 120.73 38.36 M95.87 64.77 C103.73 56.59, 110.24 49.98, 119.84 38.81 M103.63 63.89 C107.38 55.83, 117.03 48.94, 118.29 46.47 M103.1 64.72 C109.35 57.71, 115.21 48.86, 120.11 45.62 M107.98 65.36 C110.86 59.27, 116.87 55.38, 121.62 52.16 M107.89 64.99 C109.13 62.1, 112.07 59.96, 119.38 51.22 M113.06 64.69 C114.96 63.91, 115.96 61.6, 119.45 57.82 M113.08 65.11 C114.85 62.37, 117.24 59.42, 119.25 57.57" stroke="#333333" stroke-width="0.5" fill="none"></path><path d="M1.26 -1.82 C27.96 2.56, 57.03 2.76, 116.36 -0.47 M0.82 0.83 C23.96 0.65, 48.14 -1.01, 117.01 0.21 M118.02 0.88 C116.77 12.75, 115.36 26.91, 115.65 64.4 M117.92 0.77 C116.79 18.41, 117.39 37.27, 116.62 64.16 M116.05 65.98 C75 64.32, 29.73 63.98, -1.54 63.55 M117.8 63.88 C81.88 63.37, 48.98 64.44, -0.63 64.06 M-1.3 65.92 C-1.89 47.19, -0.53 31.58, -1.22 -1.26 M0.32 64.81 C0.77 42.44, -0.48 20.18, -0.64 0.57" stroke="#EEEEEE" stroke-width="1" fill="none"></path></g><g transform="translate(234.27282510288046 247) rotate(0 53.5 25)"><text x="53.5" y="18" font-family="Virgil, Segoe UI Emoji" font-size="20px" fill="#EEEEEE" text-anchor="middle" style="white-space: pre;" direction="ltr">CTA</text><text x="53.5" y="43" font-family="Virgil, Segoe UI Emoji" font-size="20px" fill="#EEEEEE" text-anchor="middle" style="white-space: pre;" direction="ltr">Group B</text></g><g stroke-linecap="round" transform="translate(155.27282510288046 338.5) rotate(0 66 34.5)"><path d="M0 0 C0 0, 0 0, 0 0 M0 0 C0 0, 0 0, 0 0 M0.21 6.55 C1.3 4.48, 1.98 3.26, 4.24 0.66 M-0.07 6.3 C1.45 4.38, 2.9 2.04, 5.33 -0.01 M0.8 13.44 C3.36 6.79, 7.79 4.03, 11.56 0.46 M0.43 12.02 C3.32 8.65, 5.29 6.23, 10.24 -0.58 M-0.42 17.78 C3.85 12.85, 11.12 7.5, 17.17 0.6 M-0.37 18.31 C3.88 15.02, 6.68 11.39, 16.6 0.56 M-1.23 22.91 C5.12 17.82, 11.09 10.63, 20.19 0.45 M-0.49 23.1 C9.33 13.4, 16.63 4, 20.29 0.45 M0.76 28.76 C5.34 22.49, 11.95 13.75, 27.14 0.58 M-0.54 31.11 C6.24 21.58, 12.95 15.03, 25.56 -0.61 M-1.72 38.34 C10.96 22.89, 24.88 6.61, 30.67 -0.06 M0.49 37.2 C11.84 22.32, 23.76 8.9, 32 0.84 M0.28 43.63 C12.38 25.66, 25.75 11.31, 38.2 -0.68 M-0.09 42.57 C11.26 29.97, 23.45 16.53, 36.83 0.14 M-0.37 49.23 C13.53 31.22, 27.02 15.6, 40.87 -1.39 M-0.92 49.81 C12.58 33.96, 26.61 18.88, 42.8 0.39 M1.43 54.31 C11.62 42.57, 25.04 25.49, 45.99 0.15 M0.66 55.46 C15.65 35.43, 30.9 18.44, 46.58 -0.76 M-0.58 60.04 C18.52 41.22, 37.82 21.36, 53.94 -1.96 M0.97 60.93 C18.24 40.58, 36.54 17.64, 52.72 0.77 M0.29 67.52 C12.68 53.18, 22.16 37.57, 58.63 1.42 M-0.71 67.01 C12.52 52.16, 27.03 34.84, 57.98 0.34 M1.35 71.22 C26.62 43.47, 46.24 19.85, 64.46 -0.16 M1.48 70.77 C23.59 44.46, 46.16 20.1, 63.31 0.39 M5.62 71.44 C28.62 44.69, 54.37 18.45, 70.7 -1.49 M8.06 70.63 C24.77 52.14, 40.79 33.36, 68.2 -0.65 M12.19 70.98 C30.64 50.78, 47.24 28.42, 72.49 -0.34 M12.54 70.49 C28.34 50.8, 45.84 31.14, 74.63 -0.6 M18.52 71.37 C35.72 52.59, 52.03 30.75, 81.25 1.83 M18.64 70.55 C38.34 47.43, 58.63 23.23, 79.45 -0.6 M24.09 71.93 C37.91 54.39, 52.36 37.69, 85.58 1.19 M24 69.86 C40.22 52.8, 55.43 33.11, 84.28 0.66 M28.86 71.14 C51.14 43.47, 74.09 20.29, 91.78 -1.17 M27.51 70.24 C51.28 45.05, 73.31 18.98, 89.93 -0.15 M32.19 69.88 C53.3 49.56, 69.74 32.09, 96.72 -1.88 M34.27 71.05 C49.24 52.03, 64.56 36.34, 96.33 -1.21 M39.27 72.83 C58.57 47.25, 77.06 24.66, 100.29 -0.02 M38.96 71.12 C58.33 48.65, 77.48 25.99, 100.89 -0.68 M44.09 71.69 C68.73 42.86, 94.41 12.92, 106.38 0.2 M44.77 71.48 C64.09 47.66, 84.76 25.35, 106.42 -0.86 M47.84 70.56 C62.77 52.7, 78.5 35.69, 111.24 0.78 M48.78 71.34 C69.34 49.13, 89.09 25.07, 111.56 0.64 M53.88 69.22 C69.04 52.56, 83.84 37.93, 115.84 -0.04 M54.92 70.8 C76.72 45.46, 97.07 21.7, 116 -0.47 M62.15 72.47 C80.37 48.85, 100.87 24.38, 121.54 -0.22 M59.3 70.8 C73.57 56.81, 86.88 40.12, 122.2 -0.12 M64.11 69.4 C88.41 43.6, 110.78 21.74, 127.83 -0.31 M65.18 69.89 C88.97 42.83, 112.37 16.43, 126.04 0.27 M69.21 70.75 C83.39 54.51, 96.35 41.87, 130.59 0.55 M70.34 70.13 C94.96 44.4, 117.15 17.24, 133.09 -0.66 M75.79 72.18 C89.62 53.71, 103.37 38.87, 131.31 8.02 M76.01 69.87 C90.41 55.18, 101.97 40.72, 132.78 5.7 M81.53 71.61 C98.58 49.53, 118.27 31.04, 131.09 14.51 M82.26 71.68 C96.09 52.87, 109.91 36.77, 132.37 13.39 M86.41 68.51 C101.21 54.62, 113.8 39.49, 132.64 18.81 M86.9 71.09 C99.4 54.38, 113.9 38.47, 131.91 18.1 M91.09 69.27 C105.79 55.47, 115.78 40.73, 133.19 23.7 M92.9 70.54 C106.44 52.85, 122.37 34.71, 131.17 24.23 M95.92 70.42 C108.22 59.42, 117.68 44.23, 132.87 29.93 M97.32 70.14 C109.73 57.84, 120.83 43.73, 132.87 29.45 M103.32 72.03 C111.67 64.53, 118.35 56, 131.03 35.56 M102.66 71.56 C114.11 59.56, 124.81 45.61, 133.13 37.61 M108.09 69.7 C115.55 63.64, 123.16 54.83, 130.63 42.05 M107.15 71.6 C114.41 64.28, 120.51 55.76, 132.7 43.26 M115.13 72.17 C119.08 66.39, 120.29 60.06, 133.87 49.77 M113.43 70.28 C119.42 64.13, 124.73 56.09, 132.61 48.79 M119.13 72.89 C122.3 67.65, 125.92 59.96, 131.98 55.62 M118.22 72 C122.3 68.02, 125.37 64.17, 132.93 54.5 M124.59 71.57 C126.15 68.92, 129.22 64.92, 131.84 61 M123.76 70.26 C125.31 67.84, 128.39 66.37, 132.82 60.47 M128.7 71.27 C129.98 70.16, 129.92 69.97, 132.34 66.83 M129.12 71.16 C130.19 69.86, 130.8 68.95, 132.39 67.27" stroke="#333333" stroke-width="0.5" fill="none"></path><path d="M1.15 -1.28 C31.08 -0.53, 63.3 -1.45, 131.74 -0.44 M-0.45 0.81 C31.84 -1.01, 61.27 -1.06, 131.91 0.7 M133.82 -0.99 C133.28 19.3, 131.13 43.35, 130.73 68.15 M131.95 -0.88 C133.06 25.85, 132.04 51.58, 132.68 69.31 M133.79 67.79 C96.72 69.81, 60.85 68.92, 0.55 68.61 M131.31 68.79 C81.08 67.8, 28.8 68.16, -0.32 68.52 M-1.15 68.55 C0.75 53.39, -1.34 33.26, 1.94 -1.55 M-0.08 69.03 C-0.97 52.4, -0.61 35.33, -0.21 0.68" stroke="#EEEEEE" stroke-width="1" fill="none"></path></g><g transform="translate(160.27282510288046 348) rotate(0 61 25)"><text x="61" y="18" font-family="Virgil, Segoe UI Emoji" font-size="20px" fill="#EEEEEE" text-anchor="middle" style="white-space: pre;" direction="ltr">Promotion </text><text x="61" y="43" font-family="Virgil, Segoe UI Emoji" font-size="20px" fill="#EEEEEE" text-anchor="middle" style="white-space: pre;" direction="ltr">Notification</text></g><g stroke-linecap="round" transform="translate(54.77282510288046 458.5) rotate(0 66 34.5)"><path d="M0 0 C0 0, 0 0, 0 0 M0 0 C0 0, 0 0, 0 0 M-0.22 5.7 C1.63 4.04, 3.92 1.22, 5.14 0.34 M-0.41 6.13 C1.49 4.23, 3.4 2.43, 5.17 0.25 M1.09 10.5 C3.94 8.18, 7.93 2.9, 9.6 0.18 M0.34 11.98 C4.38 6.99, 7.93 3.2, 10.1 -0.74 M-1.17 17.67 C4.38 14.23, 9.23 9.41, 15.93 -1.34 M0.23 18.05 C5.4 12.79, 9.82 7.01, 15.28 -0.36 M0.67 24.44 C4.72 18.21, 10.97 12.19, 20.87 -0.75 M-0.48 23.74 C6.78 15.6, 14.15 8.45, 20.9 0.88 M-0.08 30.4 C9.58 18.75, 18.11 6.29, 25.8 -1.6 M0.03 29.63 C7.9 21.48, 15.8 13.22, 25.4 -0.6 M0.61 38.48 C8.39 27.53, 17.03 18.82, 31.17 -1.52 M-1.03 36.77 C6.7 28.32, 14.3 20.06, 32.34 -0.94 M-0.47 44.11 C9.03 30.9, 23.37 18.23, 36.76 -0.81 M-0.37 42.78 C8.59 32.29, 15.89 24.02, 36.65 -0.11 M-2.12 50.77 C15.56 31.77, 31.55 10.06, 42.52 -1.15 M-0.92 48.88 C10.23 36.8, 20.43 26.64, 42.52 -0.13 M1.59 56.09 C15.4 38.14, 32.07 18.21, 49.08 1.72 M-0.57 54.57 C18.69 34.79, 36.18 13.87, 47.85 -0.15 M1.72 59.13 C10.47 49.31, 21 38.31, 54.66 -0.68 M0.23 60.38 C19.29 38.57, 39.23 17.59, 54.14 -0.7 M-1.2 66.44 C13.26 51.49, 26.83 38.34, 59.5 1.72 M-0.31 66.55 C15.17 48.61, 32.15 30.45, 58.87 -0.74 M0.46 69.39 C21.07 48.48, 39.73 26.58, 62.82 -1.12 M2.41 69.79 C18.85 50.36, 34.73 32.72, 63.45 0.07 M8.55 72.72 C27.48 43.56, 52.35 17.57, 67.23 -0.06 M7.36 70.44 C30.99 44.54, 53.39 16.06, 69.57 0.32 M13.49 71.14 C25.25 53.09, 40.1 37.32, 75.69 -1.45 M12.25 70.58 C34.71 45.75, 54.39 20.47, 75.19 0.62 M16.55 69.61 C41.49 45.55, 63.48 20.12, 79.93 0.18 M16.78 70.8 C33.55 52.64, 49.43 35.68, 78.85 0.49 M21.57 70.36 C47.42 42.83, 70.07 15.93, 85.42 -0.61 M24.29 70.83 C47.47 42.03, 70.36 15.34, 85.64 0.15 M29.31 70.29 C49.91 44.78, 72.19 19.98, 91.75 -0.76 M29.14 71.39 C43.62 54.55, 56.42 39.78, 89.59 -0.56 M32.47 72.23 C54.66 44.86, 75.21 24.41, 97.64 0.49 M33.62 71.03 C54.14 47.15, 75.15 23.79, 95.58 -0.41 M38.08 70.25 C54.53 52.78, 69.7 33.27, 101.3 0.99 M39.39 71.96 C59.47 48.61, 78.47 26.18, 99.73 0.1 M46.44 68.98 C64.11 50.4, 80.4 29.63, 105.45 0.95 M44.35 70.91 C64.93 48.47, 85.76 24.34, 105.32 0.58 M49.58 72.95 C66.21 50.67, 83.89 31.31, 109.67 -1.71 M50.05 70.97 C65.83 51.22, 81.68 33.36, 111.19 -0.4 M54.17 69.87 C79 41.51, 102.28 16.03, 114.75 -1.32 M54.6 70.42 C71.16 53.3, 86.59 35.78, 117 1.27 M59.99 71.94 C74.94 51.63, 94.17 32.77, 122.38 -0.93 M60.09 70.62 C82.74 45, 104.17 18.93, 122.91 0.33 M66.84 71.18 C80.86 52.2, 95.87 36.91, 128.89 1.34 M65.49 70.77 C89.74 42.52, 115.64 14.47, 126.28 0.28 M68.98 72.76 C88.65 50.18, 109.53 27.21, 131.48 0.27 M70.05 71.85 C84.37 56.55, 97.05 41.42, 131.88 0.92 M78.08 70.24 C88.86 55.89, 102.92 41.28, 133.46 6.95 M76.2 71.39 C97.95 45.01, 120.76 19.91, 132.09 6.27 M81.67 70.99 C99.27 51.33, 116.01 32.02, 130.28 14.69 M80.96 71.35 C95.57 52.03, 112 35.41, 132.9 12.04 M86.02 71.39 C103.3 53.33, 121.5 33.53, 131.45 18.74 M86.87 70.94 C100.32 55.28, 114.33 39.44, 132.81 17.82 M90.66 70.25 C108.57 54.17, 123.23 35.05, 133.55 25.76 M91.37 70.5 C104.89 55.64, 117.65 41, 131.79 24.19 M99.23 72.02 C109.37 55.34, 125.55 38.69, 132.52 31.94 M97.7 70.31 C105.85 60.03, 115.54 49.27, 132.55 31.23 M102 72.19 C112.69 59.94, 117.9 53.11, 132.06 38.26 M102.34 70.46 C108.63 63.76, 115.61 56.53, 132.9 37.45 M106.1 69.29 C113.76 63.71, 122.16 54.83, 131.94 44.61 M107.22 70.4 C114.07 63.58, 122.08 55.28, 131.05 42.32 M113.25 70.49 C120.12 63.27, 125.04 55.87, 131.7 49.27 M112.45 71.1 C117.74 65.3, 123.24 58.31, 133.26 49.38 M119.46 71.14 C123.25 65.84, 128.99 59.02, 132.4 54.58 M117.97 72.07 C121.63 66.83, 125.49 63.27, 132.54 54.37 M123.61 69.51 C126.58 68.74, 130.42 64.35, 131.44 62.19 M124.54 70.27 C127.2 67.98, 129.75 64.59, 132.79 60.81 M129.42 71.01 C130.25 70.14, 130.94 69.21, 132.74 66.97 M129.14 71.23 C130.19 69.75, 131.6 68.17, 132.42 67.39" stroke="#333333" stroke-width="0.5" fill="none"></path><path d="M-0.12 -1.93 C39.54 -0.19, 82.28 0.99, 133.77 -0.41 M0.37 -0.93 C37.05 0.05, 73.38 -0.26, 132.22 0.4 M132.24 -1.53 C134.1 23.48, 133.13 45.13, 131.55 70.82 M131.02 0.86 C132.02 16.44, 131.26 34.98, 131.74 69.36 M133.19 68.38 C84.59 70.35, 35.41 68.67, -0.6 70.25 M131.3 68.87 C102.29 70.93, 74.8 70.29, 0.05 69.25 M0.36 70.73 C1.68 46.66, 1.29 26.6, -1.59 -1.69 M-0.54 68.7 C-0.19 53.52, -0.24 38.06, -0.25 -0.91" stroke="#EEEEEE" stroke-width="1" fill="none"></path></g><g transform="translate(59.77282510288046 480.5) rotate(0 61 12.5)"><text x="61" y="18" font-family="Virgil, Segoe UI Emoji" font-size="20px" fill="#EEEEEE" text-anchor="middle" style="white-space: pre;" direction="ltr">Survey</text></g><g stroke-linecap="round" transform="translate(248.77282510288046 460.5) rotate(0 66 34.5)"><path d="M0 0 C0 0, 0 0, 0 0 M0 0 C0 0, 0 0, 0 0 M-0.24 5.72 C1.49 4.53, 3.27 3.14, 4.31 -0.35 M-0.09 6.72 C1.18 4.85, 2.62 3.44, 4.84 0.08 M-1.1 11.87 C1.3 9.15, 3.79 7.06, 11.36 -1.37 M-0.11 12.67 C2.45 8.79, 6.95 5.14, 10.58 -0.46 M-1.14 18.95 C4.35 13.09, 6.02 11.42, 15.16 -0.41 M-1.12 19.37 C5.53 12.33, 11.39 3.94, 15.62 -0.18 M-1.32 24.02 C6.11 17.14, 11.23 14.4, 21.26 -0.04 M0.93 24.85 C6.94 16.88, 14.39 7.93, 22.05 0.68 M-1.67 30.49 C10.74 20.43, 19.64 8.6, 26.94 -0.45 M0.86 29.56 C5.17 24.73, 10.37 19.3, 27 0.04 M0.18 35.72 C10.7 22.94, 23.64 11.96, 33.87 -1.15 M-0.73 36.42 C7.13 28.19, 14.57 20.86, 32.57 0.66 M0.03 40.9 C8.48 29.96, 20.63 18.73, 38.34 -1.61 M-0.69 41.85 C11.4 29.31, 22.5 16.32, 36.4 -0.2 M0.47 47.02 C11.87 33.56, 21.68 23.5, 41.85 0.41 M0.6 49.73 C14.21 30.12, 30.92 12.21, 41.75 -0.24 M0.79 53.26 C19.61 35.2, 35.69 11.27, 49.12 0.56 M0.64 54.78 C10.23 41.38, 21.38 29.2, 48.15 -0.38 M-0.98 60.72 C19.7 39.5, 34.85 16.81, 54.71 1.56 M-0.58 60.23 C19.97 38.65, 39.24 16.41, 53.42 -0.14 M-2.15 66.83 C14.93 49.83, 30.23 34.84, 57.04 0.93 M-1.15 67.2 C22.6 40.84, 44.64 15.06, 58.33 0.02 M3.95 71.06 C26.98 41.34, 48.79 15.55, 64.98 0.65 M2.59 70.37 C24.21 44.42, 46.64 19.03, 64.64 -0.63 M8.65 71.83 C22.77 53.94, 34.17 40.72, 67.9 -1.13 M6.33 71.89 C27.66 46.28, 48.4 24.01, 69.75 0.55 M11.98 71.5 C33.25 47.06, 54.78 23.9, 74.23 -0.45 M12.29 70.33 C28.64 52.38, 44.42 33.2, 74.73 0.23 M18.54 73 C39.07 48.38, 57.9 25.56, 77.54 0.21 M18.63 70.25 C36.5 50.83, 53.44 30.33, 78.97 0.77 M22.81 71.28 C43.37 49.35, 64.85 24.31, 83.07 1.57 M23.35 71.66 C40.32 50.42, 58.08 30.47, 84.23 -1.14 M29.21 71.05 C44.51 50.3, 59.43 33.88, 89.83 -0.75 M27.81 70.68 C52.02 42.53, 75.65 16, 89.26 -0.76 M32.67 70.35 C50.61 53.01, 66.37 35.35, 97.12 1.48 M33.87 71.14 C49.66 51.81, 67.27 33.19, 95.9 -0.76 M38.67 70.38 C61.53 44.49, 81.94 18.18, 102.65 0.76 M39.46 71.32 C53.86 53.03, 69.08 36.52, 101.65 0.55 M43.84 71.09 C67.94 42.6, 95.6 14.28, 105.05 -0.46 M43.68 71.53 C62.81 49.65, 82.42 27.61, 105.77 -0.18 M47.96 72.89 C63.71 56.97, 76.09 41.63, 109.95 1.96 M50.4 70.83 C63.81 54.83, 78.77 38.4, 111.88 0.32 M54.61 72.35 C78.19 43.06, 103.63 16.08, 115.89 0.23 M55.34 70.63 C76.16 46.92, 96.29 23.73, 115.4 1.35 M59.15 71.91 C76.66 47.51, 97.41 28.2, 123.67 -1.43 M59.68 71.39 C82.26 46.16, 105.39 20.12, 121.43 0.16 M65.33 71.48 C83.37 50.11, 102.69 28.45, 127.68 -0.79 M65.15 70.24 C89.54 44.36, 112.46 16.88, 127.6 0.83 M69.33 70.25 C90.43 47.31, 109.94 24.94, 131.82 -1.24 M71.6 71.69 C93.75 43.95, 118.92 15.96, 132.53 0.7 M76.35 70.26 C89.25 53.75, 105.11 36.3, 132.28 7.96 M76.14 71.2 C92.53 52.13, 106.54 35.6, 132.17 7.06 M80.64 70.2 C91.35 58.8, 103.5 46.41, 133.25 14 M80.68 69.93 C96.83 52.76, 113.69 33.76, 131.98 13.44 M86.08 68.98 C98.86 56.37, 113.97 40.8, 130.47 16.58 M87.07 70.33 C103.02 52.32, 118.07 34.13, 132.06 18.59 M90.24 71.51 C101.37 59.28, 112.91 44.66, 133.83 25.81 M92.68 70.84 C106.19 54.52, 120.95 37.42, 132.27 24.44 M96.95 72.35 C106.27 59.62, 115.95 50.25, 133.31 28.64 M97.46 69.49 C108.99 58.29, 121.35 44.09, 131.69 31.42 M104.33 69.4 C113.58 61.13, 122.45 49.49, 133 36.54 M103.59 70.65 C111.97 61.1, 120.06 51.51, 133.18 36.15 M108.75 72.34 C116.4 61.34, 126.94 49.63, 133.01 43.95 M107.87 71.32 C114.28 63.48, 119.66 57.53, 132.83 42.87 M112.12 72.56 C120.15 63.53, 122.72 56.36, 130.86 48.22 M112.63 70.11 C118.46 63.7, 125.53 58.67, 131.85 49.28 M119.29 71.12 C122.32 68.01, 125.54 63.86, 132.75 55.55 M117.59 71.17 C122.85 64.9, 128.31 59.98, 131.43 55.52 M123.94 69.7 C125.2 67.6, 128.69 65.19, 133.21 61.22 M123.54 71.23 C125.07 69.09, 127.18 66.55, 132.97 60.65 M129.37 71.2 C129.34 70.36, 130 69.27, 132.42 67.52 M129.18 70.99 C130.35 69.86, 131.46 68.38, 132.4 67.15" stroke="#333333" stroke-width="0.5" fill="none"></path><path d="M0.54 1.22 C46.47 -0.64, 90.49 2.05, 133.73 0.28 M0.05 -0.87 C51.54 0.75, 103.55 0.19, 132.19 -0.03 M131.26 -1.34 C132.26 20.09, 133.61 42.06, 132.92 68.46 M132.6 -0.97 C131.91 24.73, 132.08 48.55, 131.35 69.13 M132.52 68.84 C80.95 67.23, 28.35 69.48, -1.33 67.23 M131.48 68.62 C95.01 68.59, 58.28 68.71, 0.16 68.17 M0.72 68.23 C0.29 46.92, -1.51 24.28, -0.68 -1.38 M0.2 69.18 C-0.23 52.72, 0.46 36.45, -0.19 -0.34" stroke="#EEEEEE" stroke-width="1" fill="none"></path></g><g transform="translate(253.77282510288046 470) rotate(0 61 25)"><text x="61" y="18" font-family="Virgil, Segoe UI Emoji" font-size="20px" fill="#EEEEEE" text-anchor="middle" style="white-space: pre;" direction="ltr">Engagement </text><text x="61" y="43" font-family="Virgil, Segoe UI Emoji" font-size="20px" fill="#EEEEEE" text-anchor="middle" style="white-space: pre;" direction="ltr">Report</text></g><g stroke-linecap="round"><g transform="translate(103.47234606416623 88) rotate(0 15.073209955464108 22.900528345445224)"><path d="M0.87 0.98 C5.34 8.16, 23.19 37.04, 27.96 44.22 M-0.13 0.44 C4.62 8.27, 25.4 37.95, 30.28 45.36" stroke="#EEEEEE" stroke-width="1" fill="none"></path></g><g transform="translate(103.47234606416623 88) rotate(0 15.073209955464108 22.900528345445224)"><path d="M10.25 28.51 C16.11 37.1, 24.42 40.46, 30.07 46.91 M7.97 30.61 C16.73 34.85, 22.2 40.85, 30.44 44.63" stroke="#EEEEEE" stroke-width="1" fill="none"></path></g><g transform="translate(103.47234606416623 88) rotate(0 15.073209955464108 22.900528345445224)"><path d="M25.34 18.24 C25.3 31.02, 27.61 38.47, 30.07 46.91 M23.06 20.34 C26.91 28.02, 27.38 37.43, 30.44 44.63" stroke="#EEEEEE" stroke-width="1" fill="none"></path></g></g><g stroke-linecap="round"><g transform="translate(329.77282510288046 85.5) rotate(0 -12.050804470432922 23.867407732410356)"><path d="M0.91 -0.65 C-3.04 7.15, -19.89 39.09, -24.04 47.07 M-0.07 1.63 C-4.16 9.56, -20.9 40.58, -25.02 48.38" stroke="#EEEEEE" stroke-width="1" fill="none"></path></g><g transform="translate(329.77282510288046 85.5) rotate(0 -12.050804470432922 23.867407732410356)"><path d="M-22.35 21.97 C-22.94 29.32, -23.65 38.3, -26.07 48.24 M-21.63 22.09 C-21.93 27.44, -21.95 33.63, -25.44 49.14" stroke="#EEEEEE" stroke-width="1" fill="none"></path></g><g transform="translate(329.77282510288046 85.5) rotate(0 -12.050804470432922 23.867407732410356)"><path d="M-6.29 30.54 C-11.31 35.66, -16.42 42.3, -26.07 48.24 M-5.57 30.66 C-9.51 34.13, -13.09 38.41, -25.44 49.14" stroke="#EEEEEE" stroke-width="1" fill="none"></path></g></g><g stroke-linecap="round"><g transform="translate(213.27282510288046 211.5) rotate(0 -11.221129054948733 8.561978225093327)"><path d="M0.14 0.93 C-3.47 3.68, -18.71 13.05, -22.58 15.83 M-1.24 0.37 C-4.38 3.28, -16.93 14.21, -20.18 16.75" stroke="#EEEEEE" stroke-width="1" fill="none"></path></g><g transform="translate(213.27282510288046 211.5) rotate(0 -11.221129054948733 8.561978225093327)"><path d="M-12.11 4.06 C-16.19 6.2, -15.68 10.47, -20.51 16.64 M-13.78 4.91 C-15.44 8.33, -17.35 11.88, -19.71 16.09" stroke="#EEEEEE" stroke-width="1" fill="none"></path></g><g transform="translate(213.27282510288046 211.5) rotate(0 -11.221129054948733 8.561978225093327)"><path d="M-6.02 11.37 C-11.44 11.87, -12.31 14.48, -20.51 16.64 M-7.7 12.21 C-11.1 13.55, -14.76 15, -19.71 16.09" stroke="#EEEEEE" stroke-width="1" fill="none"></path></g></g><g stroke-linecap="round"><g transform="translate(220.27282510288046 214.5) rotate(0 8.617944058971489 7.364309061691159)"><path d="M0.91 -0.78 C3.73 1.98, 14.44 12.84, 17.31 15.51 M-0.07 1.43 C2.53 3.96, 13.3 11.94, 16.26 13.91" stroke="#EEEEEE" stroke-width="1" fill="none"></path></g><g transform="translate(220.27282510288046 214.5) rotate(0 8.617944058971489 7.364309061691159)"><path d="M4.57 10.71 C9.89 12.4, 13.28 13.67, 16.19 14.52 M5.54 10.69 C8.67 11.58, 11.74 12.27, 16.24 13.67" stroke="#EEEEEE" stroke-width="1" fill="none"></path></g><g transform="translate(220.27282510288046 214.5) rotate(0 8.617944058971489 7.364309061691159)"><path d="M9.07 4.37 C12.84 8.22, 14.71 11.61, 16.19 14.52 M10.04 4.35 C11.82 7.17, 13.53 9.76, 16.24 13.67" stroke="#EEEEEE" stroke-width="1" fill="none"></path></g></g><g stroke-linecap="round"><g transform="translate(172.77282510288046 309) rotate(0 11.70334173713809 8.94851353280248)"><path d="M0 -0.56 C3.95 2.64, 21.04 15.3, 24.87 18.46 M-1.46 1.76 C2.31 4.66, 19.92 14.15, 24.37 16.57" stroke="#EEEEEE" stroke-width="1" fill="none"></path></g><g transform="translate(172.77282510288046 309) rotate(0 11.70334173713809 8.94851353280248)"><path d="M8.84 15.42 C15.97 13.88, 21.78 16.87, 23.3 16.09 M9.98 14.41 C11.96 15.4, 15.81 15.13, 25.09 17.16" stroke="#EEEEEE" stroke-width="1" fill="none"></path></g><g transform="translate(172.77282510288046 309) rotate(0 11.70334173713809 8.94851353280248)"><path d="M13.75 6.41 C18.88 8.44, 22.74 14.99, 23.3 16.09 M14.88 5.39 C15.83 8.3, 18.67 9.89, 25.09 17.16" stroke="#EEEEEE" stroke-width="1" fill="none"></path></g></g><g stroke-linecap="round"><g transform="translate(257.77282510288046 315) rotate(0 -8.877679283805264 5.882281663715844)"><path d="M0.55 0.35 C-2.53 2.01, -14.47 9.07, -17.58 10.83 M-0.62 -0.51 C-3.89 1.26, -15.26 10.16, -18.3 12.28" stroke="#EEEEEE" stroke-width="1" fill="none"></path></g><g transform="translate(257.77282510288046 315) rotate(0 -8.877679283805264 5.882281663715844)"><path d="M-12.17 3.85 C-14.73 6.7, -16.81 10.4, -17.44 12.13 M-12.11 3.95 C-14.87 7.02, -16.77 9.31, -18.04 12.59" stroke="#EEEEEE" stroke-width="1" fill="none"></path></g><g transform="translate(257.77282510288046 315) rotate(0 -8.877679283805264 5.882281663715844)"><path d="M-7.88 9.65 C-12.07 10.36, -15.74 11.91, -17.44 12.13 M-7.82 9.75 C-12.12 10.77, -15.54 11, -18.04 12.59" stroke="#EEEEEE" stroke-width="1" fill="none"></path></g></g><g stroke-linecap="round"><g transform="translate(155.83730285822185 409.5) rotate(0 -14.398056052755464 18.019873040318487)"><path d="M-0.8 0.96 C-5.71 6.54, -24.14 28.7, -28.6 34.57 M0.98 0.42 C-4.2 6.64, -24.94 29.98, -29.77 35.62" stroke="#EEEEEE" stroke-width="1" fill="none"></path></g><g transform="translate(155.83730285822185 409.5) rotate(0 -14.398056052755464 18.019873040318487)"><path d="M-19.99 13.78 C-25.98 23.25, -26.26 29.4, -29.16 36.26 M-22.05 15.12 C-24.12 20.46, -25.83 26.71, -30.44 35.37" stroke="#EEEEEE" stroke-width="1" fill="none"></path></g><g transform="translate(155.83730285822185 409.5) rotate(0 -14.398056052755464 18.019873040318487)"><path d="M-8.32 23.98 C-18.72 29.6, -23.32 31.98, -29.16 36.26 M-10.38 25.32 C-15.71 27.89, -20.64 31.33, -30.44 35.37" stroke="#EEEEEE" stroke-width="1" fill="none"></path></g></g><g stroke-linecap="round"><g transform="translate(289.9530889743685 410.46920622038897) rotate(0 21.32715146328792 20.20001461211939)"><path d="M0.96 -0.42 C8.12 6.24, 35.75 33.85, 42.65 40.55 M0.01 -1.69 C7.03 5.13, 34.77 35.03, 41.67 42.09" stroke="#EEEEEE" stroke-width="1" fill="none"></path></g><g transform="translate(289.9530889743685 410.46920622038897) rotate(0 21.32715146328792 20.20001461211939)"><path d="M14.62 28.88 C22.65 31.82, 28.59 37.78, 42.81 41.28 M15 28.98 C19.72 31.15, 25.21 33.89, 40.82 41.49" stroke="#EEEEEE" stroke-width="1" fill="none"></path></g><g transform="translate(289.9530889743685 410.46920622038897) rotate(0 21.32715146328792 20.20001461211939)"><path d="M29.22 15.01 C33.3 21.87, 35.23 31.65, 42.81 41.28 M29.6 15.11 C31.24 19.99, 33.74 25.57, 40.82 41.49" stroke="#EEEEEE" stroke-width="1" fill="none"></path></g></g><g stroke-linecap="round"><g stroke-opacity="0.3" fill-opacity="0.3" transform="translate(13.27282510288046 222.5) rotate(0 210.58370920531456 0.7784395109206343)"><path d="M0.91 0.49 C70.97 0.76, 350.43 1.11, 420.26 1.06" stroke="#EEEEEE" stroke-width="1.5" fill="none" stroke-dasharray="1.5 7"></path></g></g><g stroke-linecap="round"><g stroke-opacity="0.3" fill-opacity="0.3" transform="translate(17.27282510288046 325) rotate(0 206.7282917428762 -0.379279624298249)"><path d="M0.81 0.03 C69.65 -0.17, 344 -0.87, 412.65 -0.79" stroke="#EEEEEE" stroke-width="1.5" fill="none" stroke-dasharray="1.5 7"></path></g></g></svg>
