<svg class="svg-preview" id="s2tex_0" style="vertical-align:-45.375pt; opacity: 1" xmlns="http://www.w3.org/2000/svg" xmlns:xlink="http://www.w3.org/1999/xlink" width="123" height="121" viewBox="1874.07092 1508.605116 73.524284 72.328767">
<defs>
<path id="s10g1-34" d="m1.163636-1.785305c.278954 .119552 .518057 .119552 .73325 .119552c.247073 0 .6934 0 .6934-.286924c0-.207223-.302864-.239103-.613699-.239103c-.414446 0-.629639 .087671-.797011 .159402c-.111582-.055791-.310834-.207223-.310834-.430386c0-.422416 .74122-.71731 1.538232-.71731c.247073 0 .494147 .039851 .781071 .223163c.079701 .055791 .095641 .071731 .159402 .071731c.111582 0 .239103-.119552 .239103-.239103c0-.167372-.302864-.294894-.414446-.342715c-.318804-.135492-.565878-.135492-.68543-.135492c-.948443 0-1.865006 .533998-1.865006 1.147696c0 .294894 .223163 .486177 .302864 .541968c-.557908 .358655-.6934 .789041-.6934 1.052055c0 .541968 .510087 1.028144 1.39477 1.028144c1.155666 0 1.578082-.72528 1.578082-.836862c0-.055791-.03188-.111582-.103611-.111582c-.055791 0-.079701 .03188-.111582 .079701c-.119552 .191283-.286924 .446326-1.275218 .446326c-.207223 0-1.227397 0-1.227397-.653549c0-.239103 .183313-.605729 .67746-.876712zm1.139726-.143462c-.119552 .039851-.135492 .039851-.406476 .039851c-.087671 0-.255044 0-.374595-.02391c.191283-.047821 .366625-.055791 .438356-.055791c.143462 0 .239103 .01594 .342715 .03188v.00797z"></path>
<path id="s10g1-58" d="m1.617933-.438356c0-.270984-.223163-.446326-.438356-.446326c-.255044 0-.446326 .207223-.446326 .438356c0 .270984 .223163 .446326 .438356 .446326c.255044 0 .446326-.207223 .446326-.438356z"></path>
<path id="s10g1-97" d="m3.124284-3.036613c-.071731-.135492-.302864-.478207-.789041-.478207c-.948443 0-1.992528 1.107846-1.992528 2.287422c0 .828892 .533998 1.307098 1.147696 1.307098c.510087 0 .948443-.406476 1.091905-.565878c.143462 .549938 .68543 .565878 .781071 .565878c.366625 0 .549938-.302864 .613699-.438356c.159402-.286924 .270984-.749191 .270984-.781071c0-.047821-.03188-.103611-.127522-.103611s-.111582 .047821-.159402 .247073c-.111582 .438356-.263014 .852802-.573848 .852802c-.183313 0-.255044-.151432-.255044-.374595c0-.135492 .071731-.406476 .119552-.605729s.167372-.67746 .199253-.820922l.159402-.605729c.039851-.191283 .127522-.526027 .127522-.565878c0-.183313-.151432-.247073-.255044-.247073c-.119552 0-.318804 .079701-.358655 .326775zm-.541968 2.175841c-.398506 .549938-.812951 .71731-1.067995 .71731c-.366625 0-.549938-.334745-.549938-.749191c0-.374595 .215193-1.227397 .390535-1.578082c.231133-.486177 .621669-.820922 .988294-.820922c.518057 0 .669489 .581818 .669489 .67746c0 .03188-.199253 .812951-.247073 1.020174c-.103611 .374595-.103611 .390535-.183313 .73325z"></path>
<path id="s10g1-98" d="m1.944707-5.292154c.00797-.01594 .03188-.119552 .03188-.127522c0-.039851-.03188-.111582-.127522-.111582c-.03188 0-.278954 .02391-.462267 .039851l-.446326 .03188c-.175342 .01594-.255044 .02391-.255044 .167372c0 .111582 .111582 .111582 .207223 .111582c.382565 0 .382565 .047821 .382565 .119552c0 .047821-.079701 .366625-.127522 .549938l-.6934 2.773599c-.063761 .270984-.063761 .390535-.063761 .526027c0 .820922 .502117 1.291158 1.115816 1.291158c.980324 0 2.000498-1.131756 2.000498-2.287422c0-.789041-.510087-1.307098-1.147696-1.307098c-.446326 0-.789041 .286924-.964384 .438356l.549938-2.215691zm-.438356 5.148692c-.286924 0-.573848-.223163-.573848-.804981c0-.215193 .03188-.414446 .127522-.797011c.055791-.231133 .111582-.454296 .175342-.68543c.039851-.143462 .039851-.159402 .135492-.278954c.270984-.334745 .629639-.581818 .964384-.581818c.398506 0 .549938 .390535 .549938 .749191c0 .294894-.175342 1.147696-.414446 1.617933c-.207223 .430386-.589788 .781071-.964384 .781071z"></path>
<path id="s10g1-99" d="m3.259776-3.052553c-.326775 .039851-.430386 .286924-.430386 .446326c0 .231133 .207223 .294894 .310834 .294894c.039851 0 .446326-.03188 .446326-.518057s-.526027-.68543-1.004234-.68543c-1.131756 0-2.231631 1.099875-2.231631 2.215691c0 .757161 .518057 1.378829 1.40274 1.378829c1.259278 0 1.920797-.804981 1.920797-.908593c0-.071731-.079701-.127522-.127522-.127522s-.071731 .02391-.111582 .071731c-.629639 .74122-1.522291 .74122-1.665753 .74122c-.430386 0-.773101-.263014-.773101-.868742c0-.350685 .159402-1.195517 .533998-1.689664c.350685-.446326 .749191-.589788 1.060025-.589788c.095641 0 .462267 .00797 .669489 .239103z"></path>
<path id="s10g2-83" d="m7.036362-7.581816c0-.032727-.021818-.109091-.12-.109091c-.054545 0-.065455 .010909-.196364 .163636l-.523636 .621818c-.283636-.512727-.850909-.785454-1.56-.785454c-1.385454 0-2.694545 1.254545-2.694545 2.574545c0 .883636 .578182 1.385454 1.134545 1.54909l1.167272 .305454c.403636 .098182 1.003636 .261818 1.003636 1.156363c0 .981818-.894545 2.007272-1.963636 2.007272c-.698182 0-1.90909-.24-1.90909-1.592727c0-.261818 .054545-.523636 .065455-.589091c.010909-.043636 .021818-.054545 .021818-.076364c0-.109091-.076364-.12-.130909-.12s-.076364 .010909-.109091 .043636c-.043636 .043636-.654545 2.530908-.654545 2.563636c0 .065455 .054545 .109091 .12 .109091c.054545 0 .065455-.010909 .196364-.163636l.534545-.621818c.469091 .632727 1.210909 .785454 1.843636 .785454c1.483636 0 2.770908-1.450909 2.770908-2.803636c0-.752727-.370909-1.123636-.534545-1.276363c-.250909-.250909-.414545-.294545-1.385454-.545454c-.24-.065455-.632727-.174545-.730909-.196364c-.294545-.098182-.665454-.414545-.665454-.992727c0-.883636 .872727-1.810909 1.90909-1.810909c.905454 0 1.570909 .469091 1.570909 1.690909c0 .349091-.043636 .545454-.043636 .610909c0 .010909 0 .109091 .130909 .109091c.109091 0 .12-.032727 .163636-.218182l.589091-2.38909z"></path>
<path id="s10g0-15" d="m3.753923-1.992528c0-.916563-.73325-1.649813-1.641843-1.649813s-1.641843 .73325-1.641843 1.649813s.73325 1.649813 1.641843 1.649813s1.641843-.73325 1.641843-1.649813z"></path>
</defs>
<g id="s10page1">
<!--start 1872.019782 1492.700226 -->
<g transform="matrix(1 0 0 1 -12.02 3.73)">
<use x="1919.11805" y="1544.773369" xlink:href="#s10g2-83"></use>
</g>
<path d="m1904.51562 1536.85154c-16.26172-23.22264 28.74998-23.22264 12.73828-.35937" stroke="#000" fill="none" stroke-width=".43636" stroke-miterlimit="10" stroke-dasharray="3.05449 1.74542"></path>
<path d="m1920.575522 1536.314027c-1.523262-.562285-2.660045-.230261-3.445312 .355673c.285259-.937429 .20711-2.121153-.843795-3.359452" stroke="#000" fill="none" stroke-width=".43636" stroke-miterlimit="10" stroke-linecap="round" stroke-linejoin="round"></path>
<g transform="matrix(1 0 0 1 -4.07 -27.9)">
<use x="1910.762011" y="1544.773369" xlink:href="#s10g0-15"></use>
<use x="1914.996193" y="1544.773369" xlink:href="#s10g1-34"></use>
</g>
<path d="m1902.20312 1544.261699c-27.91402-4.921879 2.0625-35.328099 6.91015-7.839839" stroke="#000" fill="none" stroke-width=".43636" stroke-miterlimit="10"></path>
<path d="m1911.335923 1533.949157c-1.476465 .683643-2.046783 1.722534-2.187443 2.691359c-.46086-.863256-1.35163-1.644503-2.972619-1.78123" stroke="#000" fill="none" stroke-width=".43636" stroke-miterlimit="10" stroke-linecap="round" stroke-linejoin="round"></path>
<g transform="matrix(1 0 0 1 -28.68 -19.09)">
<use x="1910.762011" y="1544.773369" xlink:href="#s10g0-15"></use>
<use x="1914.996193" y="1544.773369" xlink:href="#s10g1-97"></use>
</g>
<path d="m1902.20312 1551.75779c-23.21872 16.26171-23.21872-28.23829-.35547-12.22656" stroke="#000" fill="none" stroke-width=".43636" stroke-miterlimit="10"></path>
<path d="m1901.672205 1536.214502c-.558619 1.523305-.230528 2.660034 .359325 3.445228c-.937423-.285271-2.121111-.20697-3.363311 .843718" stroke="#000" fill="none" stroke-width=".43636" stroke-miterlimit="10" stroke-linecap="round" stroke-linejoin="round"></path>
<g transform="matrix(1 0 0 1 -36.39 3.77)">
<use x="1910.762011" y="1544.773369" xlink:href="#s10g0-15"></use>
<use x="1914.996193" y="1544.773369" xlink:href="#s10g1-98"></use>
</g>
<path d="m1909.53905 1552.68748c-4.92187 27.91792-35.24995-.48828-7.76562-5.33203" stroke="#000" fill="none" stroke-width=".43636" stroke-miterlimit="10"></path>
<path d="m1899.301077 1545.136678c.679628 1.472708 1.718707 2.042983 2.687505 2.183541c-.863331 .460978-1.64459 1.351572-1.777335 2.972627" stroke="#000" fill="none" stroke-width=".43636" stroke-miterlimit="10" stroke-linecap="round" stroke-linejoin="round"></path>
<g transform="matrix(1 0 0 1 -27.67 23.73)">
<use x="1910.762011" y="1544.773369" xlink:href="#s10g0-15"></use>
<use x="1914.996193" y="1544.773369" xlink:href="#s10g1-99"></use>
</g>
<path d="m1915.60546 1552.68748c16.25784 23.22262-25.94926 23.22262-9.94141 .35938" stroke="#000" fill="none" stroke-width=".43636" stroke-miterlimit="10"></path>
<path d="m1902.343009 1553.228635c1.527292 .558629 2.663895 .226598 3.445311-.359215c-.281395 .937289-.203135 2.120908 .843711 3.359273" stroke="#000" fill="none" stroke-width=".43636" stroke-miterlimit="10" stroke-linecap="round" stroke-linejoin="round"></path>
<g transform="matrix(1 0 0 1 -5.65 31.54)">
<use x="1910.762011" y="1544.773369" xlink:href="#s10g0-15"></use>
<use x="1914.996193" y="1544.773369" xlink:href="#s10g1-58"></use>
<use x="1917.348517" y="1544.773369" xlink:href="#s10g1-58"></use>
<use x="1919.700841" y="1544.773369" xlink:href="#s10g1-58"></use>
</g>
<path d="m1919.3164 1547.27732c27.9141 4.92188-2.41407 33.32808-7.26172 5.83985" stroke="#000" fill="none" stroke-width=".43636" stroke-miterlimit="10"></path>
<path d="m1909.834344 1555.58974c1.476647-.679804 2.046964-1.718792 2.187587-2.691444c.460961 .86324 1.351595 1.644532 2.968724 1.781219" stroke="#000" fill="none" stroke-width=".43636" stroke-miterlimit="10" stroke-linecap="round" stroke-linejoin="round"></path>
<path d="m1919.3164 1539.78123c23.2187-16.26173 23.2187 28.23827 .35547 12.22656" stroke="#000" fill="none" stroke-width=".43636" stroke-miterlimit="10"></path>
<path d="m1919.84735 1555.324442c.562498-1.523421 .230473-2.660073-.35545-3.445347c.937422 .285271 2.117179 .207048 3.359454-.843746" stroke="#000" fill="none" stroke-width=".43636" stroke-miterlimit="10" stroke-linecap="round" stroke-linejoin="round"></path>
<path d="m1912.33202 1536.85154c4.92188-27.91794 34.89848 2.48828 7.41406 7.33594" stroke="#000" fill="none" stroke-width=".43636" stroke-miterlimit="10"></path>
<path d="m1922.218393 1546.40239c-.679632-1.472676-1.718712-2.042979-2.687511-2.183537c.86333-.460978 1.644596-1.351576 1.777327-2.972709" stroke="#000" fill="none" stroke-width=".43636" stroke-miterlimit="10" stroke-linecap="round" stroke-linejoin="round"></path>
</g>
<script type="text/ecmascript">if(window.parent.postMessage)window.parent.postMessage("45.375|92.25|90.75|"+window.location,"*");</script>
</svg>
