<svg xmlns="http://www.w3.org/2000/svg" viewBox="0 0 400 600">
  <!-- Inner canvas -->
  <rect x="12" y="12" width="376" height="576" rx="4" fill="oklch(0.985 0.009 255.0)"/>

  <!-- Crop marks -->
  <g stroke="oklch(0.450 0.008 121.0)" stroke-width="0.75" fill="none" opacity="0.5">
    <polyline points="0,16 0,0 16,0"/>
    <polyline points="384,0 400,0 400,16"/>
    <polyline points="400,584 400,600 384,600"/>
    <polyline points="16,600 0,600 0,584"/>
  </g>

  <!-- Header -->
  <rect x="32" y="32" width="56" height="10" rx="2" fill="oklch(0.150 0.006 121.6)" opacity="0.85"/>
  <circle cx="96" cy="37" r="4" fill="oklch(0.501 0.201 19.9)"/>
  <!-- Top-right controls -->
  <circle cx="340" cy="37" r="5" fill="oklch(0.250 0.008 121.6)" opacity="0.15"/>
  <rect x="354" y="33" width="28" height="8" rx="2" fill="oklch(0.250 0.008 121.6)" opacity="0.2"/>

  <!-- Navigation tabs -->
  <g fill="none" stroke="oklch(0.450 0.008 121.0)" stroke-width="1.2" opacity="0.3">
    <rect x="32" y="56" width="108" height="28" rx="14"/>
    <rect x="148" y="56" width="108" height="28" rx="14"/>
    <rect x="264" y="56" width="108" height="28" rx="14"/>
  </g>
  <rect x="64" y="67" width="40" height="6" rx="1.5" fill="oklch(0.250 0.008 121.6)" opacity="0.55"/>
  <circle cx="109" cy="70" r="3" fill="oklch(0.501 0.201 19.9)" opacity="0.8"/>
  <rect x="178" y="67" width="48" height="6" rx="1.5" fill="oklch(0.250 0.008 121.6)" opacity="0.4"/>
  <rect x="296" y="67" width="36" height="6" rx="1.5" fill="oklch(0.250 0.008 121.6)" opacity="0.4"/>

  <!-- Divider -->
  <line x1="32" y1="98" x2="368" y2="98" stroke="oklch(0.940 0.014 255.0)" stroke-width="0.5"/>

  <!-- Filter tags -->
  <g>
    <rect x="32" y="112" width="60" height="20" rx="3" fill="none" stroke="oklch(0.450 0.008 121.0)" stroke-width="0.8" opacity="0.3"/>
    <rect x="44" y="119" width="36" height="5" rx="1.5" fill="oklch(0.250 0.008 121.6)" opacity="0.35"/>
    <rect x="100" y="112" width="52" height="20" rx="3" fill="none" stroke="oklch(0.450 0.008 121.0)" stroke-width="0.8" opacity="0.3"/>
    <rect x="112" y="119" width="28" height="5" rx="1.5" fill="oklch(0.250 0.008 121.6)" opacity="0.35"/>
    <rect x="160" y="112" width="44" height="20" rx="3" fill="none" stroke="oklch(0.450 0.008 121.0)" stroke-width="0.8" opacity="0.3"/>
    <rect x="170" y="119" width="24" height="5" rx="1.5" fill="oklch(0.250 0.008 121.6)" opacity="0.35"/>
  </g>

  <!-- Row 1: note -->
  <line x1="32" y1="150" x2="368" y2="150" stroke="oklch(0.940 0.014 255.0)" stroke-width="0.5"/>
  <rect x="36" y="160" width="64" height="5" rx="1.5" fill="oklch(0.450 0.008 121.0)" opacity="0.45"/>
  <rect x="120" y="158" width="220" height="6" rx="1.5" fill="oklch(0.250 0.008 121.6)" opacity="0.3"/>

  <!-- Row 2: article + READ -->
  <line x1="32" y1="180" x2="368" y2="180" stroke="oklch(0.940 0.014 255.0)" stroke-width="0.5"/>
  <rect x="36" y="194" width="60" height="5" rx="1.5" fill="oklch(0.450 0.008 121.0)" opacity="0.45"/>
  <rect x="36" y="206" width="32" height="5" rx="1.5" fill="oklch(0.501 0.201 19.9)" opacity="0.7"/>
  <rect x="120" y="190" width="200" height="12" rx="2" fill="oklch(0.150 0.006 121.6)" opacity="0.7"/>
  <rect x="120" y="208" width="160" height="5" rx="1.5" fill="oklch(0.250 0.008 121.6)" opacity="0.3"/>

  <!-- Row 3: note -->
  <line x1="32" y1="228" x2="368" y2="228" stroke="oklch(0.940 0.014 255.0)" stroke-width="0.5"/>
  <rect x="36" y="240" width="58" height="5" rx="1.5" fill="oklch(0.450 0.008 121.0)" opacity="0.45"/>
  <rect x="120" y="238" width="240" height="6" rx="1.5" fill="oklch(0.250 0.008 121.6)" opacity="0.3"/>

  <!-- Row 4: note -->
  <line x1="32" y1="260" x2="368" y2="260" stroke="oklch(0.940 0.014 255.0)" stroke-width="0.5"/>
  <rect x="36" y="272" width="62" height="5" rx="1.5" fill="oklch(0.450 0.008 121.0)" opacity="0.45"/>
  <rect x="120" y="270" width="230" height="6" rx="1.5" fill="oklch(0.250 0.008 121.6)" opacity="0.3"/>

  <!-- Row 5: article -->
  <line x1="32" y1="292" x2="368" y2="292" stroke="oklch(0.940 0.014 255.0)" stroke-width="0.5"/>
  <rect x="36" y="306" width="56" height="5" rx="1.5" fill="oklch(0.450 0.008 121.0)" opacity="0.45"/>
  <rect x="120" y="302" width="170" height="12" rx="2" fill="oklch(0.150 0.006 121.6)" opacity="0.65"/>

  <!-- Row 6: article + READ -->
  <line x1="32" y1="328" x2="368" y2="328" stroke="oklch(0.940 0.014 255.0)" stroke-width="0.5"/>
  <rect x="36" y="342" width="60" height="5" rx="1.5" fill="oklch(0.450 0.008 121.0)" opacity="0.45"/>
  <rect x="36" y="354" width="32" height="5" rx="1.5" fill="oklch(0.501 0.201 19.9)" opacity="0.7"/>
  <rect x="120" y="338" width="240" height="12" rx="2" fill="oklch(0.150 0.006 121.6)" opacity="0.7"/>
  <rect x="120" y="356" width="190" height="5" rx="1.5" fill="oklch(0.250 0.008 121.6)" opacity="0.3"/>

  <!-- Row 7: article -->
  <line x1="32" y1="378" x2="368" y2="378" stroke="oklch(0.940 0.014 255.0)" stroke-width="0.5"/>
  <rect x="36" y="392" width="66" height="5" rx="1.5" fill="oklch(0.450 0.008 121.0)" opacity="0.45"/>
  <rect x="120" y="388" width="150" height="12" rx="2" fill="oklch(0.150 0.006 121.6)" opacity="0.65"/>

  <!-- Row 8: note -->
  <line x1="32" y1="416" x2="368" y2="416" stroke="oklch(0.940 0.014 255.0)" stroke-width="0.5"/>
  <rect x="36" y="428" width="62" height="5" rx="1.5" fill="oklch(0.450 0.008 121.0)" opacity="0.45"/>
  <rect x="120" y="426" width="245" height="6" rx="1.5" fill="oklch(0.250 0.008 121.6)" opacity="0.3"/>

  <!-- Row 9: article -->
  <line x1="32" y1="448" x2="368" y2="448" stroke="oklch(0.940 0.014 255.0)" stroke-width="0.5"/>
  <rect x="36" y="462" width="58" height="5" rx="1.5" fill="oklch(0.450 0.008 121.0)" opacity="0.45"/>
  <rect x="120" y="458" width="248" height="12" rx="2" fill="oklch(0.150 0.006 121.6)" opacity="0.65"/>

  <!-- Row 10: article + READ -->
  <line x1="32" y1="486" x2="368" y2="486" stroke="oklch(0.940 0.014 255.0)" stroke-width="0.5"/>
  <rect x="36" y="500" width="60" height="5" rx="1.5" fill="oklch(0.450 0.008 121.0)" opacity="0.45"/>
  <rect x="36" y="512" width="32" height="5" rx="1.5" fill="oklch(0.501 0.201 19.9)" opacity="0.7"/>
  <rect x="120" y="496" width="210" height="12" rx="2" fill="oklch(0.150 0.006 121.6)" opacity="0.7"/>
  <rect x="120" y="514" width="180" height="5" rx="1.5" fill="oklch(0.250 0.008 121.6)" opacity="0.3"/>

  <!-- Plate label -->
  <text x="368" y="572" font-family="Georgia, serif" font-size="9" fill="oklch(0.450 0.008 121.0)" opacity="0.5" text-anchor="end" font-style="italic">Pl. 1</text>
</svg>
