<svg xmlns="http://www.w3.org/2000/svg" viewBox="0 0 800 450">
  <!-- Inner canvas -->
  <rect x="12" y="12" width="776" height="426" rx="4" fill="oklch(0.985 0.009 255.0)"/>

  <!-- Crop marks -->
  <g stroke="oklch(0.450 0.008 121.0)" stroke-width="0.75" fill="none" opacity="0.5">
    <polyline points="0,16 0,0 16,0"/>
    <polyline points="784,0 800,0 800,16"/>
    <polyline points="800,434 800,450 784,450"/>
    <polyline points="16,450 0,450 0,434"/>
  </g>

  <!-- Sidebar -->
  <rect x="32" y="32" width="160" height="396" rx="4" fill="oklch(0.150 0.006 121.6)" opacity="0.08"/>
  <!-- Logo -->
  <rect x="52" y="52" width="80" height="12" rx="2" fill="oklch(0.150 0.006 121.6)" opacity="0.7"/>
  <circle cx="140" cy="58" r="5" fill="oklch(0.501 0.201 19.9)" opacity="0.7"/>
  <!-- Nav items -->
  <rect x="52" y="86" width="100" height="7" rx="1.5" fill="oklch(0.501 0.201 19.9)" opacity="0.5"/>
  <rect x="52" y="108" width="84" height="7" rx="1.5" fill="oklch(0.250 0.008 121.6)" opacity="0.3"/>
  <rect x="52" y="130" width="96" height="7" rx="1.5" fill="oklch(0.250 0.008 121.6)" opacity="0.3"/>
  <rect x="52" y="152" width="72" height="7" rx="1.5" fill="oklch(0.250 0.008 121.6)" opacity="0.3"/>
  <rect x="52" y="174" width="88" height="7" rx="1.5" fill="oklch(0.250 0.008 121.6)" opacity="0.3"/>

  <!-- Main content area -->
  <!-- Page heading -->
  <rect x="220" y="40" width="140" height="14" rx="2" fill="oklch(0.150 0.006 121.6)" opacity="0.75"/>

  <!-- Stats row -->
  <g>
    <rect x="220" y="72" width="130" height="52" rx="4" fill="oklch(0.150 0.006 121.6)" opacity="0.05" stroke="oklch(0.940 0.014 255.0)" stroke-width="0.8"/>
    <rect x="236" y="82" width="50" height="5" rx="1.5" fill="oklch(0.450 0.008 121.0)" opacity="0.4"/>
    <rect x="236" y="98" width="30" height="14" rx="2" fill="oklch(0.150 0.006 121.6)" opacity="0.7"/>

    <rect x="366" y="72" width="130" height="52" rx="4" fill="oklch(0.150 0.006 121.6)" opacity="0.05" stroke="oklch(0.940 0.014 255.0)" stroke-width="0.8"/>
    <rect x="382" y="82" width="60" height="5" rx="1.5" fill="oklch(0.450 0.008 121.0)" opacity="0.4"/>
    <rect x="382" y="98" width="36" height="14" rx="2" fill="oklch(0.501 0.201 19.9)" opacity="0.6"/>

    <rect x="512" y="72" width="130" height="52" rx="4" fill="oklch(0.150 0.006 121.6)" opacity="0.05" stroke="oklch(0.940 0.014 255.0)" stroke-width="0.8"/>
    <rect x="528" y="82" width="44" height="5" rx="1.5" fill="oklch(0.450 0.008 121.0)" opacity="0.4"/>
    <rect x="528" y="98" width="24" height="14" rx="2" fill="oklch(0.150 0.006 121.6)" opacity="0.7"/>
  </g>

  <!-- Filter bar -->
  <rect x="220" y="140" width="80" height="22" rx="11" fill="none" stroke="oklch(0.450 0.008 121.0)" stroke-width="0.8" opacity="0.3"/>
  <rect x="240" y="148" width="40" height="5" rx="1.5" fill="oklch(0.250 0.008 121.6)" opacity="0.35"/>
  <rect x="310" y="140" width="68" height="22" rx="11" fill="none" stroke="oklch(0.450 0.008 121.0)" stroke-width="0.8" opacity="0.3"/>
  <rect x="326" y="148" width="36" height="5" rx="1.5" fill="oklch(0.250 0.008 121.6)" opacity="0.35"/>

  <!-- Reviews list heading -->
  <rect x="220" y="180" width="90" height="8" rx="1.5" fill="oklch(0.150 0.006 121.6)" opacity="0.5"/>
  <rect x="680" y="180" width="70" height="8" rx="1.5" fill="oklch(0.450 0.008 121.0)" opacity="0.3"/>

  <!-- Review row 1 -->
  <line x1="220" y1="200" x2="752" y2="200" stroke="oklch(0.940 0.014 255.0)" stroke-width="0.5"/>
  <!-- Stars -->
  <g fill="oklch(0.501 0.201 19.9)" opacity="0.65">
    <circle cx="232" cy="216" r="4"/><circle cx="244" cy="216" r="4"/><circle cx="256" cy="216" r="4"/><circle cx="268" cy="216" r="4"/><circle cx="280" cy="216" r="4"/>
  </g>
  <rect x="296" y="212" width="180" height="6" rx="1.5" fill="oklch(0.250 0.008 121.6)" opacity="0.3"/>
  <rect x="296" y="224" width="140" height="5" rx="1.5" fill="oklch(0.250 0.008 121.6)" opacity="0.2"/>
  <!-- Coupon badge -->
  <rect x="680" y="210" width="56" height="18" rx="3" fill="oklch(0.501 0.201 19.9)" opacity="0.12"/>
  <rect x="690" y="217" width="36" height="5" rx="1.5" fill="oklch(0.501 0.201 19.9)" opacity="0.5"/>

  <!-- Review row 2 -->
  <line x1="220" y1="244" x2="752" y2="244" stroke="oklch(0.940 0.014 255.0)" stroke-width="0.5"/>
  <g fill="oklch(0.501 0.201 19.9)" opacity="0.65">
    <circle cx="232" cy="260" r="4"/><circle cx="244" cy="260" r="4"/><circle cx="256" cy="260" r="4"/><circle cx="268" cy="260" r="4"/>
  </g>
  <circle cx="280" cy="260" r="4" fill="oklch(0.450 0.008 121.0)" opacity="0.2"/>
  <rect x="296" y="256" width="200" height="6" rx="1.5" fill="oklch(0.250 0.008 121.6)" opacity="0.3"/>
  <rect x="296" y="268" width="160" height="5" rx="1.5" fill="oklch(0.250 0.008 121.6)" opacity="0.2"/>
  <rect x="680" y="254" width="56" height="18" rx="3" fill="oklch(0.501 0.201 19.9)" opacity="0.12"/>
  <rect x="690" y="261" width="36" height="5" rx="1.5" fill="oklch(0.501 0.201 19.9)" opacity="0.5"/>

  <!-- Review row 3 -->
  <line x1="220" y1="288" x2="752" y2="288" stroke="oklch(0.940 0.014 255.0)" stroke-width="0.5"/>
  <g fill="oklch(0.501 0.201 19.9)" opacity="0.65">
    <circle cx="232" cy="304" r="4"/><circle cx="244" cy="304" r="4"/><circle cx="256" cy="304" r="4"/><circle cx="268" cy="304" r="4"/><circle cx="280" cy="304" r="4"/>
  </g>
  <rect x="296" y="300" width="170" height="6" rx="1.5" fill="oklch(0.250 0.008 121.6)" opacity="0.3"/>
  <rect x="296" y="312" width="120" height="5" rx="1.5" fill="oklch(0.250 0.008 121.6)" opacity="0.2"/>

  <!-- Review row 4 -->
  <line x1="220" y1="332" x2="752" y2="332" stroke="oklch(0.940 0.014 255.0)" stroke-width="0.5"/>
  <g fill="oklch(0.501 0.201 19.9)" opacity="0.65">
    <circle cx="232" cy="348" r="4"/><circle cx="244" cy="348" r="4"/><circle cx="256" cy="348" r="4"/>
  </g>
  <circle cx="268" cy="348" r="4" fill="oklch(0.450 0.008 121.0)" opacity="0.2"/>
  <circle cx="280" cy="348" r="4" fill="oklch(0.450 0.008 121.0)" opacity="0.2"/>
  <rect x="296" y="344" width="220" height="6" rx="1.5" fill="oklch(0.250 0.008 121.6)" opacity="0.3"/>
  <rect x="296" y="356" width="180" height="5" rx="1.5" fill="oklch(0.250 0.008 121.6)" opacity="0.2"/>
  <rect x="680" y="342" width="56" height="18" rx="3" fill="oklch(0.501 0.201 19.9)" opacity="0.12"/>
  <rect x="690" y="349" width="36" height="5" rx="1.5" fill="oklch(0.501 0.201 19.9)" opacity="0.5"/>

  <!-- Review row 5 -->
  <line x1="220" y1="376" x2="752" y2="376" stroke="oklch(0.940 0.014 255.0)" stroke-width="0.5"/>
  <g fill="oklch(0.501 0.201 19.9)" opacity="0.65">
    <circle cx="232" cy="392" r="4"/><circle cx="244" cy="392" r="4"/><circle cx="256" cy="392" r="4"/><circle cx="268" cy="392" r="4"/><circle cx="280" cy="392" r="4"/>
  </g>
  <rect x="296" y="388" width="190" height="6" rx="1.5" fill="oklch(0.250 0.008 121.6)" opacity="0.3"/>
  <rect x="296" y="400" width="150" height="5" rx="1.5" fill="oklch(0.250 0.008 121.6)" opacity="0.2"/>

  <!-- Plate label -->
  <text x="740" y="416" font-family="Georgia, serif" font-size="9" fill="oklch(0.450 0.008 121.0)" opacity="0.5" text-anchor="end" font-style="italic">Pl. 3</text>
</svg>
